<svg xmlns="http://www.w3.org/2000/svg" xmlns:xlink="http://www.w3.org/1999/xlink" width="480" zoomAndPan="magnify" viewBox="0 0 360 503.999982" height="672" preserveAspectRatio="xMidYMid meet" version="1.0"><defs><clipPath id="f854ac0c70"><path d="M 111.429688 174.574219 L 248.679688 174.574219 L 248.679688 311.824219 L 111.429688 311.824219 Z M 111.429688 174.574219 " clip-rule="nonzero"/></clipPath></defs><path fill="#392c24" d="M 186.429688 198.105469 L 185.613281 203.339844 L 186.089844 203.921875 L 186.910156 198.671875 Z M 186.429688 198.105469 " fill-opacity="1" fill-rule="nonzero"/><path fill="#392c24" d="M 188.6875 198.777344 L 188.867188 197.617188 L 187.113281 197.347656 L 187.664062 193.816406 L 187.183594 193.25 L 186.480469 197.757812 L 188.03125 197.996094 Z M 188.6875 198.777344 " fill-opacity="1" fill-rule="nonzero"/><path fill="#392c24" d="M 189.5 193.421875 L 190.15625 194.203125 L 190.332031 193.042969 L 186.550781 192.457031 L 187.082031 193.046875 Z M 189.5 193.421875 " fill-opacity="1" fill-rule="nonzero"/><path fill="#392c24" d="M 180.726562 192.105469 L 181.335938 192.621094 L 181.460938 192.742188 L 181.253906 203.015625 L 181.808594 203.53125 L 182.03125 192.132812 Z M 180.726562 192.105469 " fill-opacity="1" fill-rule="nonzero"/><path fill="#392c24" d="M 176.148438 192.757812 L 176.964844 193.339844 L 176.839844 192.175781 L 172.570312 192.644531 L 173.179688 193.082031 Z M 176.148438 192.757812 " fill-opacity="1" fill-rule="nonzero"/><path fill="#392c24" d="M 174.871094 193.066406 L 175.992188 203.238281 L 176.605469 203.675781 L 175.484375 193.503906 Z M 174.871094 193.066406 " fill-opacity="1" fill-rule="nonzero"/><path fill="#392c24" d="M 194.335938 194.042969 L 194.785156 194.699219 L 194.875 194.847656 L 191.953125 204.703125 L 192.347656 205.34375 L 195.589844 194.414062 Z M 194.335938 194.042969 " fill-opacity="1" fill-rule="nonzero"/><path fill="#392c24" d="M 202.75 208.40625 L 207.632812 201.179688 L 208.808594 201.972656 L 203.925781 209.195312 Z M 202.75 208.40625 " fill-opacity="1" fill-rule="nonzero"/><path fill="#392c24" d="M 168.664062 199.511719 C 169.308594 199.328125 169.738281 199.554688 169.886719 200.058594 L 171.015625 204.050781 L 171.695312 204.382812 L 170.421875 199.894531 C 170.371094 199.691406 170.257812 199.53125 170.082031 199.410156 C 169.90625 199.289062 169.714844 199.242188 169.507812 199.265625 Z M 168.664062 199.511719 " fill-opacity="1" fill-rule="nonzero"/><path fill="#392c24" d="M 209.839844 202.011719 C 209.96875 202.089844 210.054688 202.203125 210.089844 202.351562 C 210.125 202.496094 210.105469 202.636719 210.023438 202.765625 L 204.746094 210.476562 C 204.585938 210.710938 204.449219 210.71875 204.398438 210.726562 L 204.535156 211.273438 C 204.78125 211.242188 204.976562 211.125 205.117188 210.917969 L 210.558594 202.972656 C 210.632812 202.867188 210.679688 202.753906 210.699219 202.628906 C 210.722656 202.503906 210.71875 202.378906 210.6875 202.257812 C 210.660156 202.132812 210.605469 202.019531 210.527344 201.921875 C 210.449219 201.820312 210.355469 201.742188 210.246094 201.679688 L 207.425781 199.761719 L 207.605469 200.496094 Z M 209.839844 202.011719 " fill-opacity="1" fill-rule="nonzero"/><path fill="#392c24" d="M 202.417969 197.621094 L 202.835938 198.546875 L 203.324219 197.480469 L 199.835938 195.902344 L 200.1875 196.613281 Z M 202.417969 197.621094 " fill-opacity="1" fill-rule="nonzero"/><path fill="#392c24" d="M 200.195312 202.5625 L 200.679688 201.492188 L 199.0625 200.761719 L 200.539062 197.511719 L 200.234375 196.835938 L 198.34375 200.988281 L 199.773438 201.632812 Z M 200.195312 202.5625 " fill-opacity="1" fill-rule="nonzero"/><path fill="#392c24" d="M 198.324219 206.996094 L 198.722656 207.917969 L 199.210938 206.847656 L 196.796875 205.753906 L 198.507812 201.984375 L 198.199219 201.308594 L 196.074219 205.980469 Z M 198.324219 206.996094 " fill-opacity="1" fill-rule="nonzero"/><path fill="#392c24" d="M 204.011719 210.421875 C 204.109375 210.488281 204.21875 210.507812 204.335938 210.480469 L 204.207031 209.933594 L 202.726562 208.925781 L 207.839844 201.449219 L 207.652344 200.734375 L 201.976562 209.023438 Z M 204.011719 210.421875 " fill-opacity="1" fill-rule="nonzero"/><path fill="#392c24" d="M 158.234375 208.917969 C 158.347656 209.035156 158.382812 209.175781 158.34375 209.335938 L 158.921875 209.398438 C 158.976562 209.15625 158.933594 208.933594 158.789062 208.730469 L 157.4375 206.832031 L 156.371094 207.585938 L 157.371094 207.699219 Z M 158.234375 208.917969 " fill-opacity="1" fill-rule="nonzero"/><path fill="#392c24" d="M 160.527344 197.3125 L 160.019531 196.257812 L 156.566406 197.90625 L 157.34375 198.09375 L 159.546875 197.039062 Z M 160.527344 197.3125 " fill-opacity="1" fill-rule="nonzero"/><path fill="#392c24" d="M 150.234375 202.820312 C 150.222656 202.953125 150.257812 203.070312 150.351562 203.167969 L 155.628906 210.597656 C 155.722656 210.707031 155.839844 210.773438 155.984375 210.789062 C 156.132812 210.808594 156.261719 210.773438 156.378906 210.683594 L 157.929688 209.589844 C 158.023438 209.519531 158.082031 209.429688 158.097656 209.316406 L 157.546875 209.25 L 156.085938 210.285156 L 150.835938 202.894531 Z M 150.234375 202.820312 " fill-opacity="1" fill-rule="nonzero"/><path fill="#392c24" d="M 164.109375 206.203125 L 165.070312 206.484375 L 164.5625 205.425781 L 162.171875 206.570312 L 160.378906 202.832031 L 159.660156 202.636719 L 161.882812 207.265625 Z M 164.109375 206.203125 " fill-opacity="1" fill-rule="nonzero"/><path fill="#392c24" d="M 150.355469 202.40625 L 152.046875 201.210938 C 152.164062 201.117188 152.300781 201.078125 152.449219 201.097656 C 152.601562 201.113281 152.722656 201.183594 152.816406 201.300781 L 153.78125 202.671875 L 154.53125 202.757812 L 153.203125 200.867188 C 153.125 200.765625 153.03125 200.683594 152.921875 200.621094 C 152.8125 200.558594 152.695312 200.519531 152.570312 200.507812 C 152.445312 200.492188 152.324219 200.503906 152.203125 200.539062 C 152.082031 200.574219 151.972656 200.632812 151.875 200.714844 L 149.90625 202.105469 C 149.667969 202.265625 149.523438 202.484375 149.464844 202.765625 L 150.011719 202.792969 C 150.085938 202.628906 150.199219 202.5 150.355469 202.40625 Z M 150.355469 202.40625 " fill-opacity="1" fill-rule="nonzero"/><path fill="#392c24" d="M 161.90625 201.917969 L 161.398438 200.859375 L 159.800781 201.625 L 158.25 198.398438 L 157.539062 198.207031 L 159.511719 202.316406 L 160.925781 201.640625 Z M 161.90625 201.917969 " fill-opacity="1" fill-rule="nonzero"/><path fill="#392c24" d="M 166.148438 195.5 L 167.3125 195.171875 L 168.332031 198.769531 L 167.164062 199.097656 Z M 166.148438 195.5 " fill-opacity="1" fill-rule="nonzero"/><path fill="#392c24" d="M 168.710938 205.226562 L 167.394531 200.597656 L 166.726562 200.28125 L 168.03125 204.898438 Z M 168.710938 205.226562 " fill-opacity="1" fill-rule="nonzero"/><path fill="#392c24" d="M 168.902344 198.921875 L 168.585938 198.847656 C 168.523438 198.890625 168.453125 198.921875 168.378906 198.941406 L 167.03125 199.320312 L 165.933594 195.398438 L 165.25 195.070312 L 166.621094 199.941406 L 168.132812 199.519531 C 168.476562 199.429688 168.730469 199.230469 168.902344 198.921875 Z M 168.902344 198.921875 " fill-opacity="1" fill-rule="nonzero"/><path fill="#392c24" d="M 150.984375 223.804688 C 151.382812 223.210938 151.796875 222.628906 152.230469 222.0625 C 152.664062 221.492188 153.113281 220.9375 153.582031 220.394531 C 154.046875 219.855469 154.53125 219.328125 155.03125 218.816406 C 155.53125 218.304688 156.046875 217.808594 156.578125 217.328125 C 157.105469 216.847656 157.652344 216.382812 158.210938 215.9375 C 158.769531 215.492188 159.339844 215.0625 159.925781 214.648438 C 160.511719 214.238281 161.109375 213.84375 161.71875 213.46875 C 162.328125 213.09375 162.949219 212.738281 163.582031 212.402344 C 164.210938 212.0625 164.855469 211.746094 165.503906 211.449219 C 166.15625 211.152344 166.816406 210.875 167.484375 210.617188 C 168.152344 210.359375 168.828125 210.121094 169.511719 209.90625 C 170.191406 209.691406 170.882812 209.496094 171.574219 209.320312 C 172.269531 209.148438 172.96875 208.996094 173.675781 208.863281 C 174.378906 208.734375 175.085938 208.625 175.796875 208.539062 C 176.507812 208.449219 177.21875 208.382812 177.933594 208.339844 C 178.648438 208.296875 179.367188 208.273438 180.082031 208.273438 C 180.796875 208.273438 181.511719 208.296875 182.226562 208.339844 C 182.941406 208.382812 183.65625 208.449219 184.367188 208.539062 C 185.078125 208.625 185.785156 208.734375 186.488281 208.863281 C 187.195312 208.996094 187.894531 209.148438 188.585938 209.320312 C 189.28125 209.496094 189.972656 209.691406 190.652344 209.90625 C 191.335938 210.121094 192.011719 210.359375 192.679688 210.617188 C 193.347656 210.875 194.007812 211.152344 194.660156 211.449219 C 195.308594 211.746094 195.953125 212.0625 196.582031 212.402344 C 197.214844 212.738281 197.835938 213.09375 198.445312 213.46875 C 199.054688 213.84375 199.652344 214.238281 200.238281 214.648438 C 200.820312 215.0625 201.394531 215.492188 201.953125 215.9375 C 202.511719 216.382812 203.054688 216.847656 203.585938 217.328125 C 204.117188 217.808594 204.632812 218.304688 205.132812 218.816406 C 205.632812 219.328125 206.117188 219.855469 206.582031 220.394531 C 207.050781 220.9375 207.5 221.492188 207.933594 222.0625 C 208.367188 222.628906 208.78125 223.210938 209.179688 223.804688 L 229.628906 223.804688 C 230.488281 223.808594 231.324219 223.945312 232.140625 224.222656 C 224.375 203.035156 204.007812 187.898438 180.082031 187.898438 C 156.152344 187.898438 135.789062 203.035156 128.027344 224.222656 C 128.839844 223.949219 129.675781 223.808594 130.535156 223.804688 Z M 215.71875 212.648438 L 216.945312 210.035156 L 218.175781 212.648438 L 220.921875 213.070312 L 218.929688 215.105469 L 219.390625 217.980469 L 216.9375 216.609375 L 214.464844 217.980469 L 214.9375 215.105469 L 212.964844 213.085938 Z M 210.386719 201.585938 C 210.507812 201.660156 210.609375 201.753906 210.691406 201.867188 C 210.777344 201.980469 210.835938 202.105469 210.867188 202.242188 C 210.902344 202.382812 210.910156 202.519531 210.886719 202.660156 C 210.867188 202.796875 210.820312 202.929688 210.746094 203.046875 L 205.246094 211.089844 C 205.15625 211.199219 205.050781 211.289062 204.929688 211.355469 C 204.808594 211.425781 204.675781 211.46875 204.539062 211.484375 C 204.398438 211.5 204.261719 211.492188 204.128906 211.457031 C 203.992188 211.421875 203.867188 211.359375 203.757812 211.273438 L 200.738281 209.214844 L 207.367188 199.527344 Z M 203.566406 197.402344 L 202.9375 198.773438 L 200.640625 197.753906 L 199.308594 200.6875 L 200.921875 201.417969 L 200.296875 202.785156 L 198.683594 202.054688 L 197.039062 205.671875 L 199.449219 206.765625 L 198.824219 208.136719 L 194.882812 206.351562 L 199.738281 195.675781 Z M 194.203125 193.828125 L 195.816406 194.308594 L 192.480469 205.558594 L 190.867188 205.078125 Z M 186.394531 192.261719 L 190.542969 192.90625 L 190.3125 194.398438 L 187.820312 194.011719 L 187.324219 197.207031 L 189.078125 197.480469 L 188.84375 198.972656 L 187.09375 198.699219 L 186.246094 204.117188 L 184.585938 203.855469 Z M 180.542969 191.9375 L 182.222656 191.964844 L 181.988281 203.703125 L 180.3125 203.667969 Z M 177.007812 191.988281 L 177.171875 193.488281 L 175.6875 193.652344 L 176.804688 203.820312 L 175.132812 204.007812 L 174.007812 193.835938 L 172.527344 194 L 172.359375 192.5 Z M 167.441406 193.5625 C 167.578125 193.519531 167.714844 193.5 167.855469 193.511719 C 167.996094 193.519531 168.128906 193.558594 168.257812 193.621094 C 168.382812 193.683594 168.492188 193.765625 168.585938 193.871094 C 168.679688 193.976562 168.75 194.097656 168.796875 194.230469 L 169.914062 198.167969 C 169.976562 198.347656 169.976562 198.527344 169.914062 198.707031 C 169.851562 198.886719 169.738281 199.023438 169.574219 199.121094 C 169.8125 199.109375 170.027344 199.171875 170.21875 199.3125 C 170.410156 199.449219 170.539062 199.632812 170.601562 199.863281 L 171.914062 204.515625 L 170.300781 204.96875 L 168.945312 200.179688 L 167.570312 200.566406 L 168.925781 205.355469 L 167.308594 205.808594 L 164.121094 194.5 Z M 160.117188 196.027344 L 160.769531 197.394531 L 158.496094 198.492188 L 159.894531 201.410156 L 161.496094 200.640625 L 162.152344 202.011719 L 160.546875 202.773438 L 162.269531 206.359375 L 164.660156 205.21875 L 165.3125 206.585938 L 161.40625 208.429688 L 156.324219 197.835938 Z M 149.753906 202.007812 L 151.828125 200.542969 C 151.941406 200.457031 152.0625 200.394531 152.199219 200.359375 C 152.335938 200.320312 152.472656 200.308594 152.613281 200.324219 C 152.753906 200.339844 152.886719 200.382812 153.007812 200.453125 C 153.132812 200.519531 153.238281 200.609375 153.328125 200.71875 L 154.78125 202.773438 L 153.410156 203.738281 L 152.242188 202.097656 L 151.082031 202.917969 L 156.140625 210.035156 L 157.296875 209.214844 L 156.121094 207.570312 L 157.492188 206.601562 L 158.96875 208.679688 C 159.042969 208.800781 159.089844 208.929688 159.113281 209.066406 C 159.132812 209.203125 159.128906 209.339844 159.097656 209.476562 C 159.066406 209.613281 159.007812 209.738281 158.929688 209.851562 C 158.847656 209.964844 158.746094 210.0625 158.628906 210.136719 L 156.558594 211.597656 C 156.328125 211.773438 156.070312 211.847656 155.785156 211.816406 C 155.496094 211.785156 155.257812 211.660156 155.074219 211.441406 L 149.421875 203.5 C 149.347656 203.378906 149.296875 203.246094 149.273438 203.105469 C 149.25 202.964844 149.253906 202.828125 149.285156 202.6875 C 149.316406 202.546875 149.371094 202.417969 149.453125 202.300781 C 149.535156 202.183594 149.632812 202.085938 149.753906 202.007812 Z M 141.988281 212.71875 L 143.226562 210.230469 L 144.449219 212.71875 L 147.195312 213.117188 L 145.207031 215.054688 L 145.671875 217.792969 L 143.21875 216.5 L 140.746094 217.792969 L 141.207031 215.054688 L 139.222656 213.117188 Z M 141.988281 212.71875 " fill-opacity="1" fill-rule="nonzero"/><path fill="#392c24" d="M 168.140625 194.65625 L 169.144531 198.191406 C 169.21875 198.460938 169.1875 198.722656 169.054688 198.96875 L 169.367188 199.050781 C 169.523438 198.96875 169.636719 198.839844 169.703125 198.675781 C 169.769531 198.507812 169.773438 198.339844 169.71875 198.171875 L 168.621094 194.335938 C 168.585938 194.214844 168.527344 194.109375 168.445312 194.011719 C 168.363281 193.914062 168.265625 193.839844 168.152344 193.78125 C 168.039062 193.726562 167.917969 193.695312 167.792969 193.691406 C 167.664062 193.6875 167.542969 193.707031 167.425781 193.75 L 164.34375 194.609375 L 165.074219 194.925781 L 167.394531 194.277344 C 167.546875 194.230469 167.699219 194.242188 167.84375 194.316406 C 167.988281 194.390625 168.085938 194.503906 168.140625 194.65625 Z M 168.140625 194.65625 " fill-opacity="1" fill-rule="nonzero"/><path fill="#392c24" d="M 191.824219 287.636719 L 192.996094 287.308594 L 194.015625 290.902344 L 192.84375 291.234375 Z M 191.824219 287.636719 " fill-opacity="1" fill-rule="nonzero"/><path fill="#392c24" d="M 191.265625 287.476562 L 191.578125 287.5625 C 191.640625 287.523438 191.710938 287.492188 191.785156 287.472656 L 193.132812 287.09375 L 194.246094 291.011719 L 194.917969 291.328125 L 193.542969 286.453125 L 192.03125 286.878906 C 191.6875 286.964844 191.429688 287.164062 191.265625 287.476562 Z M 191.265625 287.476562 " fill-opacity="1" fill-rule="nonzero"/><path fill="#392c24" d="M 179.4375 294.292969 L 178.832031 293.777344 L 178.707031 293.65625 L 178.910156 283.386719 L 178.359375 282.867188 L 178.132812 294.269531 Z M 179.4375 294.292969 " fill-opacity="1" fill-rule="nonzero"/><path fill="#392c24" d="M 165.828125 292.355469 L 165.382812 291.699219 L 165.289062 291.550781 L 168.214844 281.695312 L 167.816406 281.054688 L 164.574219 291.984375 Z M 165.828125 292.355469 " fill-opacity="1" fill-rule="nonzero"/><path fill="#392c24" d="M 173.734375 288.296875 L 174.554688 283.058594 L 174.074219 282.476562 L 173.257812 287.726562 Z M 173.734375 288.296875 " fill-opacity="1" fill-rule="nonzero"/><path fill="#392c24" d="M 171.480469 287.625 L 171.296875 288.78125 L 173.050781 289.054688 L 172.5 292.582031 L 172.980469 293.148438 L 173.683594 288.640625 L 172.132812 288.402344 Z M 171.480469 287.625 " fill-opacity="1" fill-rule="nonzero"/><path fill="#392c24" d="M 170.664062 292.976562 L 170.011719 292.195312 L 169.828125 293.355469 L 173.613281 293.941406 L 173.085938 293.351562 Z M 170.664062 292.976562 " fill-opacity="1" fill-rule="nonzero"/><path fill="#392c24" d="M 191.503906 286.890625 C 190.859375 287.070312 190.421875 286.84375 190.28125 286.34375 L 189.152344 282.347656 L 188.476562 282.015625 L 189.746094 286.5 C 189.800781 286.703125 189.914062 286.867188 190.085938 286.984375 C 190.261719 287.105469 190.453125 287.152344 190.664062 287.128906 Z M 191.503906 286.890625 " fill-opacity="1" fill-rule="nonzero"/><path fill="#392c24" d="M 192.023438 291.742188 L 191.023438 288.207031 C 190.945312 287.933594 190.976562 287.675781 191.117188 287.433594 L 190.796875 287.347656 C 190.640625 287.433594 190.527344 287.558594 190.460938 287.722656 C 190.394531 287.890625 190.390625 288.058594 190.445312 288.226562 L 191.542969 292.0625 C 191.578125 292.183594 191.636719 292.292969 191.71875 292.386719 C 191.800781 292.484375 191.898438 292.5625 192.011719 292.617188 C 192.125 292.671875 192.246094 292.703125 192.371094 292.710938 C 192.496094 292.714844 192.621094 292.695312 192.738281 292.648438 L 195.832031 291.777344 L 195.097656 291.464844 L 192.78125 292.113281 C 192.625 292.164062 192.472656 292.152344 192.328125 292.078125 C 192.179688 292.007812 192.078125 291.894531 192.023438 291.742188 Z M 192.023438 291.742188 " fill-opacity="1" fill-rule="nonzero"/><path fill="#392c24" d="M 185.292969 293.332031 L 184.171875 283.160156 L 183.558594 282.722656 L 184.683594 292.894531 Z M 185.292969 293.332031 " fill-opacity="1" fill-rule="nonzero"/><path fill="#392c24" d="M 201.929688 277.480469 C 201.820312 277.359375 201.785156 277.222656 201.820312 277.0625 L 201.246094 277 C 201.1875 277.242188 201.230469 277.464844 201.378906 277.667969 L 202.726562 279.566406 L 203.792969 278.8125 L 202.796875 278.699219 Z M 201.929688 277.480469 " fill-opacity="1" fill-rule="nonzero"/><path fill="#392c24" d="M 209.8125 283.992188 L 208.121094 285.1875 C 208 285.28125 207.867188 285.320312 207.714844 285.304688 C 207.5625 285.285156 207.4375 285.21875 207.34375 285.097656 L 206.382812 283.742188 L 205.636719 283.652344 L 206.96875 285.527344 C 207.042969 285.628906 207.136719 285.710938 207.242188 285.773438 C 207.351562 285.835938 207.46875 285.875 207.59375 285.890625 C 207.71875 285.902344 207.84375 285.894531 207.960938 285.855469 C 208.082031 285.820312 208.191406 285.761719 208.289062 285.683594 L 210.253906 284.292969 C 210.488281 284.132812 210.636719 283.910156 210.699219 283.632812 L 210.148438 283.605469 C 210.082031 283.773438 209.96875 283.898438 209.8125 283.992188 Z M 209.8125 283.992188 " fill-opacity="1" fill-rule="nonzero"/><path fill="#392c24" d="M 209.929688 283.582031 C 209.941406 283.449219 209.90625 283.332031 209.816406 283.230469 L 204.535156 275.804688 C 204.441406 275.691406 204.324219 275.628906 204.179688 275.609375 C 204.035156 275.59375 203.902344 275.628906 203.785156 275.714844 L 202.238281 276.808594 C 202.140625 276.875 202.082031 276.964844 202.070312 277.082031 L 202.621094 277.148438 L 204.082031 276.117188 L 209.332031 283.507812 Z M 209.929688 283.582031 " fill-opacity="1" fill-rule="nonzero"/><path fill="#392c24" d="M 232.140625 262.175781 C 231.324219 262.453125 230.488281 262.589844 229.628906 262.59375 L 209.1875 262.59375 C 208.789062 263.1875 208.375 263.769531 207.941406 264.339844 C 207.507812 264.90625 207.058594 265.460938 206.589844 266.003906 C 206.125 266.542969 205.640625 267.070312 205.140625 267.582031 C 204.640625 268.09375 204.125 268.589844 203.59375 269.070312 C 203.066406 269.550781 202.519531 270.015625 201.960938 270.460938 C 201.402344 270.90625 200.832031 271.335938 200.246094 271.75 C 199.660156 272.160156 199.0625 272.554688 198.453125 272.929688 C 197.84375 273.304688 197.222656 273.660156 196.589844 273.996094 C 195.960938 274.335938 195.316406 274.652344 194.667969 274.949219 C 194.015625 275.246094 193.355469 275.523438 192.6875 275.78125 C 192.019531 276.039062 191.34375 276.277344 190.660156 276.492188 C 189.980469 276.707031 189.289062 276.902344 188.597656 277.078125 C 187.902344 277.25 187.203125 277.402344 186.496094 277.535156 C 185.792969 277.664062 185.085938 277.773438 184.375 277.863281 C 183.664062 277.949219 182.953125 278.015625 182.238281 278.058594 C 181.523438 278.101562 180.804688 278.125 180.089844 278.125 C 179.375 278.125 178.660156 278.101562 177.945312 278.058594 C 177.230469 278.015625 176.515625 277.949219 175.804688 277.863281 C 175.09375 277.773438 174.386719 277.664062 173.683594 277.535156 C 172.976562 277.402344 172.277344 277.25 171.585938 277.078125 C 170.890625 276.902344 170.199219 276.707031 169.519531 276.492188 C 168.835938 276.277344 168.160156 276.039062 167.492188 275.78125 C 166.824219 275.523438 166.164062 275.246094 165.511719 274.949219 C 164.863281 274.652344 164.21875 274.335938 163.589844 273.996094 C 162.957031 273.660156 162.335938 273.304688 161.726562 272.929688 C 161.117188 272.554688 160.519531 272.160156 159.933594 271.75 C 159.351562 271.335938 158.777344 270.90625 158.21875 270.460938 C 157.660156 270.015625 157.117188 269.550781 156.585938 269.070312 C 156.054688 268.589844 155.539062 268.09375 155.039062 267.582031 C 154.539062 267.070312 154.054688 266.542969 153.589844 266.003906 C 153.121094 265.460938 152.671875 264.90625 152.238281 264.339844 C 151.804688 263.769531 151.390625 263.1875 150.992188 262.59375 L 130.535156 262.59375 C 129.675781 262.589844 128.839844 262.453125 128.027344 262.175781 C 135.789062 283.363281 156.15625 298.5 180.082031 298.5 C 204.007812 298.5 224.375 283.363281 232.140625 262.175781 Z M 144.449219 272.339844 L 143.226562 274.828125 L 141.988281 272.339844 L 139.246094 271.9375 L 141.230469 270.007812 L 140.769531 267.269531 L 143.238281 268.5625 L 145.695312 267.269531 L 145.230469 270.007812 L 147.214844 271.9375 Z M 149.777344 284.824219 C 149.65625 284.75 149.554688 284.65625 149.472656 284.542969 C 149.386719 284.429688 149.332031 284.304688 149.296875 284.167969 C 149.265625 284.03125 149.257812 283.890625 149.28125 283.753906 C 149.300781 283.613281 149.347656 283.484375 149.421875 283.363281 L 154.925781 275.324219 C 155.011719 275.214844 155.117188 275.125 155.238281 275.058594 C 155.359375 274.988281 155.488281 274.945312 155.628906 274.929688 C 155.765625 274.910156 155.902344 274.921875 156.039062 274.957031 C 156.171875 274.992188 156.296875 275.050781 156.40625 275.136719 L 159.425781 277.195312 L 152.796875 286.886719 Z M 156.601562 288.996094 L 157.226562 287.625 L 159.523438 288.667969 L 160.859375 285.71875 L 159.238281 284.984375 L 159.863281 283.617188 L 161.480469 284.347656 L 163.125 280.726562 L 160.707031 279.632812 L 161.332031 278.261719 L 165.277344 280.039062 L 160.417969 290.71875 Z M 165.960938 292.570312 L 164.347656 292.089844 L 167.6875 280.84375 L 169.296875 281.320312 Z M 173.785156 294.136719 L 169.636719 293.492188 L 169.867188 292 L 172.359375 292.390625 L 172.839844 289.191406 L 171.089844 288.917969 L 171.324219 287.425781 L 173.074219 287.699219 L 173.917969 282.285156 L 175.578125 282.542969 Z M 179.636719 294.464844 L 177.957031 294.429688 L 178.191406 282.699219 L 179.867188 282.730469 Z M 183.171875 294.414062 L 183.007812 292.910156 L 184.488281 292.75 L 183.367188 282.582031 L 185.03125 282.398438 L 186.15625 292.566406 L 187.640625 292.402344 L 187.808594 293.902344 Z M 192.722656 292.832031 C 192.585938 292.878906 192.449219 292.894531 192.308594 292.886719 C 192.167969 292.875 192.035156 292.839844 191.90625 292.777344 C 191.78125 292.714844 191.671875 292.632812 191.578125 292.527344 C 191.484375 292.421875 191.414062 292.300781 191.367188 292.167969 L 190.25 288.230469 C 190.191406 288.054688 190.195312 287.878906 190.253906 287.699219 C 190.316406 287.523438 190.425781 287.386719 190.582031 287.285156 C 190.347656 287.296875 190.132812 287.234375 189.941406 287.09375 C 189.75 286.957031 189.625 286.773438 189.5625 286.542969 L 188.246094 281.890625 L 189.863281 281.4375 L 191.21875 286.226562 L 192.589844 285.84375 L 191.234375 281.050781 L 192.851562 280.597656 L 196.046875 291.890625 Z M 200.050781 290.371094 L 199.394531 289 L 201.671875 287.90625 L 200.269531 284.988281 L 198.671875 285.75 L 198.019531 284.382812 L 199.617188 283.617188 L 197.898438 280.03125 L 195.503906 281.171875 L 194.855469 279.804688 L 198.757812 277.96875 L 203.839844 288.558594 Z M 210.414062 284.382812 L 208.339844 285.847656 C 208.230469 285.9375 208.105469 286 207.96875 286.035156 C 207.835938 286.074219 207.695312 286.085938 207.554688 286.070312 C 207.417969 286.050781 207.285156 286.011719 207.160156 285.941406 C 207.039062 285.875 206.933594 285.785156 206.84375 285.675781 L 205.386719 283.625 L 206.757812 282.65625 L 207.925781 284.296875 L 209.082031 283.476562 L 204.027344 276.359375 L 202.871094 277.179688 L 204.046875 278.835938 L 202.675781 279.804688 L 201.199219 277.726562 C 201.125 277.609375 201.078125 277.480469 201.058594 277.339844 C 201.035156 277.203125 201.039062 277.066406 201.070312 276.929688 C 201.101562 276.796875 201.160156 276.671875 201.238281 276.558594 C 201.320312 276.441406 201.417969 276.347656 201.535156 276.273438 L 203.609375 274.808594 C 203.835938 274.632812 204.097656 274.558594 204.382812 274.589844 C 204.671875 274.621094 204.90625 274.75 205.09375 274.96875 L 210.746094 282.910156 C 210.898438 283.160156 210.945312 283.429688 210.878906 283.71875 C 210.8125 284.003906 210.660156 284.226562 210.410156 284.390625 Z M 216.945312 275.015625 L 215.71875 272.402344 L 212.976562 271.984375 L 214.96875 269.949219 L 214.496094 267.074219 L 216.964844 268.429688 L 219.421875 267.074219 L 218.960938 269.949219 L 220.949219 271.984375 L 218.207031 272.402344 Z M 216.945312 275.015625 " fill-opacity="1" fill-rule="nonzero"/><path fill="#392c24" d="M 191.453125 281.167969 L 192.765625 285.800781 L 193.441406 286.117188 L 192.132812 281.503906 Z M 191.453125 281.167969 " fill-opacity="1" fill-rule="nonzero"/><path fill="#392c24" d="M 196.058594 280.195312 L 195.09375 279.914062 L 195.601562 280.972656 L 197.992188 279.828125 L 199.785156 283.566406 L 200.5 283.761719 L 198.28125 279.136719 Z M 196.058594 280.195312 " fill-opacity="1" fill-rule="nonzero"/><path fill="#392c24" d="M 199.636719 289.085938 L 200.148438 290.140625 L 203.597656 288.492188 L 202.824219 288.304688 L 200.621094 289.359375 Z M 199.636719 289.085938 " fill-opacity="1" fill-rule="nonzero"/><path fill="#392c24" d="M 198.257812 284.480469 L 198.765625 285.539062 L 200.363281 284.777344 L 201.914062 287.996094 L 202.628906 288.195312 L 200.652344 284.082031 L 199.238281 284.753906 Z M 198.257812 284.480469 " fill-opacity="1" fill-rule="nonzero"/><path fill="#392c24" d="M 184.011719 293.640625 L 183.199219 293.058594 L 183.328125 294.222656 L 187.59375 293.753906 L 186.984375 293.316406 Z M 184.011719 293.640625 " fill-opacity="1" fill-rule="nonzero"/><path fill="#392c24" d="M 151.09375 283.890625 L 156.019531 276.691406 L 157.191406 277.492188 L 152.265625 284.6875 Z M 151.09375 283.890625 " fill-opacity="1" fill-rule="nonzero"/><path fill="#392c24" d="M 159.972656 283.835938 L 159.484375 284.90625 L 161.101562 285.636719 L 159.625 288.886719 L 159.933594 289.5625 L 161.820312 285.410156 L 160.390625 284.765625 Z M 159.972656 283.835938 " fill-opacity="1" fill-rule="nonzero"/><path fill="#392c24" d="M 156.152344 275.976562 C 156.050781 275.910156 155.945312 275.890625 155.828125 275.917969 L 155.960938 276.464844 L 157.4375 277.476562 L 152.324219 284.949219 L 152.511719 285.664062 L 158.1875 277.375 Z M 156.152344 275.976562 " fill-opacity="1" fill-rule="nonzero"/><path fill="#392c24" d="M 157.746094 288.777344 L 157.328125 287.851562 L 156.84375 288.917969 L 160.328125 290.496094 L 159.972656 289.785156 Z M 157.746094 288.777344 " fill-opacity="1" fill-rule="nonzero"/><path fill="#392c24" d="M 161.84375 279.402344 L 161.441406 278.480469 L 160.957031 279.554688 L 163.371094 280.644531 L 161.65625 284.417969 L 161.96875 285.089844 L 164.089844 280.417969 Z M 161.84375 279.402344 " fill-opacity="1" fill-rule="nonzero"/><path fill="#392c24" d="M 150.324219 284.386719 C 150.195312 284.308594 150.113281 284.195312 150.078125 284.046875 C 150.042969 283.898438 150.0625 283.761719 150.144531 283.632812 L 155.417969 275.921875 C 155.492188 275.78125 155.605469 275.695312 155.765625 275.671875 L 155.628906 275.125 C 155.382812 275.15625 155.1875 275.273438 155.046875 275.480469 L 149.601562 283.441406 C 149.53125 283.546875 149.484375 283.664062 149.464844 283.785156 C 149.441406 283.910156 149.445312 284.035156 149.476562 284.15625 C 149.503906 284.28125 149.558594 284.390625 149.636719 284.492188 C 149.714844 284.589844 149.808594 284.671875 149.917969 284.734375 L 152.738281 286.648438 L 152.5625 285.917969 Z M 150.324219 284.386719 " fill-opacity="1" fill-rule="nonzero"/><path fill="#392c24" d="M 219.351562 233.742188 L 221.566406 233.742188 L 221.566406 252.65625 L 219.351562 252.65625 Z M 219.351562 233.742188 " fill-opacity="1" fill-rule="nonzero"/><path fill="#392c24" d="M 161.292969 233.742188 L 163.1875 233.742188 L 163.1875 241.851562 L 161.292969 241.851562 Z M 161.292969 233.742188 " fill-opacity="1" fill-rule="nonzero"/><path fill="#392c24" d="M 149.539062 260.265625 L 229.628906 260.265625 C 230.96875 260.253906 232.15625 259.828125 233.195312 258.988281 C 234.417969 254.882812 235.148438 250.691406 235.390625 246.414062 L 235.390625 239.984375 C 235.148438 235.710938 234.417969 231.519531 233.195312 227.414062 C 232.15625 226.570312 230.96875 226.144531 229.628906 226.132812 L 130.535156 226.132812 C 129.195312 226.140625 128.003906 226.570312 126.96875 227.414062 C 125.746094 231.515625 125.015625 235.703125 124.773438 239.976562 L 124.773438 246.421875 C 125.015625 250.695312 125.746094 254.882812 126.96875 258.988281 C 128.007812 259.828125 129.195312 260.253906 130.535156 260.265625 Z M 216.730469 230.464844 L 222.445312 230.464844 C 223.433594 230.464844 224.195312 231.484375 224.195312 232.65625 L 224.195312 253.792969 C 224.195312 254.957031 223.40625 255.941406 222.445312 255.941406 L 216.730469 255.941406 Z M 205.667969 230.464844 L 212.230469 230.464844 L 212.230469 233.75 L 208.292969 233.75 L 208.292969 240.761719 L 211.066406 240.761719 L 211.066406 244.046875 L 208.292969 244.046875 L 208.292969 252.667969 L 212.433594 252.667969 L 212.433594 255.953125 L 205.667969 255.953125 Z M 198.460938 230.464844 L 201.085938 230.464844 L 201.085938 255.925781 L 198.460938 255.925781 Z M 187.902344 230.464844 L 194.464844 230.464844 L 194.464844 233.75 L 190.527344 233.75 L 190.527344 240.761719 L 193.296875 240.761719 L 193.296875 244.046875 L 190.527344 244.046875 L 190.527344 255.941406 L 187.902344 255.941406 Z M 180.691406 230.464844 L 183.320312 230.464844 L 183.320312 255.925781 L 180.691406 255.925781 Z M 169.699219 230.464844 L 176.988281 230.464844 L 176.988281 233.75 L 174.65625 233.75 L 174.65625 255.941406 L 172.03125 255.941406 L 172.03125 233.742188 L 169.699219 233.742188 Z M 158.667969 230.464844 L 164.0625 230.464844 C 165.058594 230.464844 165.816406 231.484375 165.816406 232.65625 L 165.816406 241.535156 C 165.816406 242.445312 165.4375 243.136719 164.910156 243.316406 C 165.699219 243.535156 166.136719 244.554688 166.136719 245.464844 L 166.136719 255.941406 L 163.507812 255.941406 L 163.507812 245.117188 L 161.292969 245.117188 L 161.292969 255.921875 L 158.667969 255.921875 Z M 147.613281 230.464844 L 154.175781 230.464844 L 154.175781 233.75 L 150.234375 233.75 L 150.234375 240.761719 L 153.007812 240.761719 L 153.007812 244.046875 L 150.234375 244.046875 L 150.234375 252.667969 L 154.378906 252.667969 L 154.378906 255.953125 L 147.613281 255.953125 Z M 135.972656 232.65625 C 135.972656 231.492188 136.796875 230.464844 137.722656 230.464844 L 141.6875 230.464844 C 142.679688 230.464844 143.4375 231.484375 143.4375 232.65625 L 143.4375 238.105469 L 140.8125 238.105469 L 140.8125 233.726562 L 138.59375 233.726562 L 138.59375 252.644531 L 140.8125 252.644531 L 140.8125 248.253906 L 143.4375 248.253906 L 143.4375 253.785156 C 143.4375 254.949219 142.648438 255.933594 141.6875 255.933594 L 137.722656 255.933594 C 136.789062 255.933594 135.972656 254.949219 135.972656 253.785156 Z M 135.972656 232.65625 " fill-opacity="1" fill-rule="nonzero"/><path fill="#392c24" d="M 178.589844 217.761719 L 179.648438 219.785156 L 180.71875 217.761719 L 182.972656 217.378906 L 181.375 215.746094 L 181.707031 213.488281 L 179.648438 214.496094 L 177.597656 213.488281 L 177.929688 215.746094 L 176.335938 217.378906 Z M 178.589844 217.761719 " fill-opacity="1" fill-rule="nonzero"/><path fill="#392c24" d="M 193.589844 221.429688 L 194.558594 223.273438 L 195.53125 221.429688 L 197.585938 221.078125 L 196.128906 219.589844 L 196.429688 217.53125 L 194.558594 218.449219 L 192.691406 217.53125 L 192.992188 219.589844 L 191.53125 221.078125 Z M 193.589844 221.429688 " fill-opacity="1" fill-rule="nonzero"/><path fill="#392c24" d="M 164.632812 221.429688 L 165.601562 223.273438 L 166.574219 221.429688 L 168.628906 221.078125 L 167.171875 219.589844 L 167.476562 217.53125 L 165.601562 218.449219 L 163.730469 217.53125 L 164.035156 219.589844 L 162.578125 221.078125 Z M 164.632812 221.429688 " fill-opacity="1" fill-rule="nonzero"/><path fill="#392c24" d="M 180.71875 267.886719 L 179.648438 265.867188 L 178.589844 267.886719 L 176.335938 268.273438 L 177.929688 269.90625 L 177.597656 272.164062 L 179.648438 271.15625 L 181.707031 272.164062 L 181.375 269.90625 L 182.972656 268.273438 Z M 180.71875 267.886719 " fill-opacity="1" fill-rule="nonzero"/><path fill="#392c24" d="M 195.53125 264.222656 L 194.558594 262.378906 L 193.589844 264.222656 L 191.53125 264.574219 L 192.992188 266.0625 L 192.691406 268.121094 L 194.558594 267.199219 L 196.429688 268.121094 L 196.128906 266.0625 L 197.585938 264.574219 Z M 195.53125 264.222656 " fill-opacity="1" fill-rule="nonzero"/><path fill="#392c24" d="M 166.574219 264.222656 L 165.601562 262.378906 L 164.632812 264.222656 L 162.578125 264.574219 L 164.035156 266.0625 L 163.730469 268.121094 L 165.601562 267.199219 L 167.476562 268.121094 L 167.171875 266.0625 L 168.628906 264.574219 Z M 166.574219 264.222656 " fill-opacity="1" fill-rule="nonzero"/><path fill="#392c24" d="M 243.730469 232.457031 C 243.492188 230.667969 243.117188 228.914062 242.601562 227.183594 C 242.164062 225.4375 241.75 223.683594 241.054688 222.019531 C 240.359375 220.355469 239.929688 218.589844 239.082031 217 C 238.28125 215.386719 237.550781 213.742188 236.703125 212.152344 L 233.886719 207.542969 C 232.875 206.050781 231.742188 204.648438 230.683594 203.195312 C 229.625 201.738281 228.304688 200.492188 227.136719 199.121094 C 225.96875 197.753906 224.605469 196.566406 223.265625 195.355469 C 221.96875 194.097656 220.582031 192.949219 219.105469 191.910156 C 217.644531 190.855469 216.261719 189.6875 214.675781 188.820312 C 213.089844 187.957031 211.636719 186.867188 210.007812 186.101562 L 205.128906 183.765625 L 200.050781 181.914062 C 198.351562 181.3125 196.570312 180.984375 194.835938 180.496094 C 193.109375 179.960938 191.300781 179.804688 189.527344 179.511719 C 187.75 179.175781 185.957031 178.996094 184.148438 178.960938 C 182.347656 178.9375 180.542969 178.632812 178.738281 178.824219 L 173.328125 179.097656 L 167.984375 179.921875 C 166.195312 180.195312 164.480469 180.773438 162.722656 181.175781 C 160.96875 181.578125 159.285156 182.242188 157.589844 182.851562 C 155.871094 183.410156 154.210938 184.105469 152.605469 184.9375 C 150.996094 185.742188 149.3125 186.417969 147.8125 187.425781 C 146.316406 188.4375 144.679688 189.21875 143.234375 190.300781 L 138.898438 193.535156 L 134.890625 197.167969 C 133.585938 198.410156 132.445312 199.808594 131.207031 201.117188 C 129.921875 202.394531 128.980469 203.949219 127.859375 205.355469 C 126.75 206.78125 125.753906 208.277344 124.867188 209.847656 C 123.878906 211.355469 123.007812 212.929688 122.253906 214.570312 C 121.523438 216.210938 120.574219 217.761719 120.039062 219.496094 C 119.445312 221.1875 118.746094 222.847656 118.230469 224.582031 L 116.882812 229.785156 C 116.53125 231.546875 116.320312 233.34375 116.027344 235.113281 C 115.664062 236.878906 115.753906 238.699219 115.609375 240.492188 C 115.449219 242.289062 115.449219 244.085938 115.609375 245.886719 C 115.75 247.679688 115.664062 249.496094 116.027344 251.265625 C 116.320312 253.039062 116.53125 254.824219 116.882812 256.59375 L 118.230469 261.820312 C 118.746094 263.539062 119.449219 265.203125 120.039062 266.898438 C 120.574219 268.625 121.523438 270.183594 122.253906 271.828125 C 123.007812 273.464844 123.878906 275.039062 124.867188 276.546875 C 125.753906 278.117188 126.75 279.617188 127.859375 281.039062 C 128.980469 282.445312 129.921875 284.003906 131.207031 285.273438 C 132.445312 286.585938 133.585938 287.988281 134.890625 289.226562 L 138.898438 292.859375 L 143.226562 296.101562 C 144.671875 297.183594 146.289062 298.003906 147.804688 298.972656 C 149.304688 299.988281 150.988281 300.660156 152.597656 301.460938 C 154.203125 302.296875 155.871094 302.996094 157.59375 303.554688 C 159.289062 304.160156 160.957031 304.863281 162.726562 305.230469 C 164.496094 305.597656 166.199219 306.21875 167.984375 306.484375 L 173.332031 307.308594 L 178.742188 307.582031 C 180.542969 307.773438 182.351562 307.472656 184.152344 307.445312 C 185.957031 307.410156 187.75 307.230469 189.527344 306.898438 C 191.304688 306.597656 193.113281 306.441406 194.839844 305.910156 C 196.574219 305.421875 198.355469 305.085938 200.054688 304.488281 L 205.132812 302.636719 L 210.011719 300.296875 C 211.644531 299.53125 213.117188 298.46875 214.675781 297.578125 C 216.238281 296.683594 217.652344 295.546875 219.109375 294.488281 C 220.589844 293.449219 221.976562 292.300781 223.273438 291.046875 C 224.609375 289.832031 225.984375 288.664062 227.140625 287.277344 C 228.300781 285.886719 229.667969 284.691406 230.695312 283.203125 C 231.71875 281.71875 232.890625 280.347656 233.898438 278.859375 L 236.710938 274.246094 C 237.554688 272.660156 238.289062 271.011719 239.085938 269.398438 C 239.9375 267.804688 240.382812 266.046875 241.058594 264.378906 C 241.734375 262.710938 242.171875 260.957031 242.605469 259.214844 C 243.121094 257.488281 243.496094 255.730469 243.734375 253.945312 C 243.945312 252.15625 244.40625 250.398438 244.425781 248.59375 L 244.703125 243.199219 L 244.425781 237.804688 C 244.398438 236 243.941406 234.242188 243.730469 232.457031 Z M 243.566406 235.195312 C 243.789062 236.367188 242.832031 237.414062 241.550781 237.523438 C 240.316406 237.628906 239.234375 236.835938 239.03125 235.761719 C 238.828125 234.6875 239.738281 233.644531 240.984375 233.4375 C 241.273438 233.378906 241.5625 233.382812 241.847656 233.441406 C 242.136719 233.5 242.402344 233.613281 242.644531 233.777344 C 242.886719 233.941406 243.089844 234.148438 243.25 234.394531 C 243.410156 234.640625 243.515625 234.90625 243.566406 235.195312 Z M 242.71875 229.914062 C 242.996094 231.070312 242.054688 232.210938 240.828125 232.417969 C 239.601562 232.625 238.488281 231.917969 238.246094 230.859375 C 238.003906 229.796875 238.742188 228.699219 239.964844 228.394531 C 240.246094 228.316406 240.535156 228.292969 240.828125 228.324219 C 241.121094 228.359375 241.398438 228.449219 241.65625 228.589844 C 241.914062 228.730469 242.132812 228.917969 242.316406 229.148438 C 242.503906 229.375 242.636719 229.632812 242.71875 229.914062 Z M 241.382812 224.734375 C 241.449219 225.019531 241.453125 225.308594 241.40625 225.601562 C 241.355469 225.890625 241.25 226.160156 241.09375 226.410156 C 240.9375 226.65625 240.738281 226.867188 240.496094 227.039062 C 240.253906 227.207031 239.992188 227.324219 239.703125 227.390625 C 238.480469 227.707031 237.269531 227.117188 237.003906 226.050781 C 236.742188 224.984375 237.3125 223.859375 238.53125 223.441406 C 239.699219 223.039062 241.085938 223.582031 241.382812 224.734375 Z M 239.589844 219.695312 C 239.683594 219.972656 239.71875 220.257812 239.695312 220.550781 C 239.675781 220.84375 239.597656 221.117188 239.464844 221.378906 C 239.332031 221.640625 239.152344 221.863281 238.929688 222.054688 C 238.707031 222.246094 238.453125 222.382812 238.175781 222.472656 C 236.980469 222.890625 235.703125 222.402344 235.335938 221.378906 C 235.265625 221.105469 235.242188 220.828125 235.269531 220.546875 C 235.296875 220.265625 235.375 220 235.503906 219.75 C 235.628906 219.496094 235.796875 219.273438 236.003906 219.082031 C 236.210938 218.894531 236.445312 218.746094 236.710938 218.640625 C 237.871094 218.109375 239.21875 218.558594 239.589844 219.695312 Z M 237.394531 214.824219 C 237.515625 215.089844 237.578125 215.367188 237.585938 215.660156 C 237.59375 215.953125 237.542969 216.234375 237.433594 216.503906 C 237.324219 216.777344 237.167969 217.015625 236.960938 217.222656 C 236.753906 217.429688 236.515625 217.585938 236.246094 217.699219 C 235.09375 218.210938 233.777344 217.835938 233.296875 216.855469 C 232.820312 215.871094 233.351562 214.582031 234.457031 213.976562 C 234.703125 213.828125 234.972656 213.734375 235.261719 213.695312 C 235.546875 213.660156 235.832031 213.679688 236.109375 213.761719 C 236.390625 213.839844 236.640625 213.972656 236.863281 214.15625 C 237.089844 214.34375 237.265625 214.566406 237.394531 214.824219 Z M 234.808594 210.144531 C 234.953125 210.394531 235.042969 210.667969 235.078125 210.957031 C 235.109375 211.242188 235.085938 211.527344 235.003906 211.804688 C 234.921875 212.085938 234.785156 212.335938 234.597656 212.558594 C 234.414062 212.78125 234.1875 212.960938 233.929688 213.089844 C 232.832031 213.699219 231.460938 213.445312 230.910156 212.511719 C 230.363281 211.582031 230.742188 210.257812 231.792969 209.5625 C 232.03125 209.398438 232.289062 209.28125 232.574219 209.222656 C 232.855469 209.160156 233.140625 209.15625 233.425781 209.210938 C 233.710938 209.265625 233.972656 209.375 234.210938 209.535156 C 234.453125 209.699219 234.652344 209.902344 234.808594 210.144531 Z M 231.84375 205.691406 C 232.011719 205.929688 232.128906 206.1875 232.191406 206.46875 C 232.25 206.753906 232.253906 207.035156 232.195312 207.320312 C 232.140625 207.601562 232.027344 207.863281 231.859375 208.101562 C 231.695312 208.339844 231.488281 208.53125 231.238281 208.683594 C 230.1875 209.382812 228.800781 209.25 228.148438 208.375 C 227.492188 207.503906 227.765625 206.164062 228.757812 205.382812 C 228.980469 205.191406 229.230469 205.054688 229.511719 204.96875 C 229.789062 204.882812 230.074219 204.855469 230.367188 204.882812 C 230.65625 204.914062 230.929688 204.996094 231.1875 205.136719 C 231.445312 205.277344 231.664062 205.464844 231.84375 205.691406 Z M 228.523438 201.492188 C 229.347656 202.351562 229.140625 203.753906 228.140625 204.550781 C 227.925781 204.734375 227.683594 204.875 227.414062 204.96875 C 227.148438 205.0625 226.871094 205.105469 226.585938 205.101562 C 226.304688 205.09375 226.03125 205.035156 225.765625 204.929688 C 225.503906 204.820312 225.269531 204.671875 225.0625 204.476562 C 224.324219 203.65625 224.476562 202.316406 225.398438 201.464844 C 225.609375 201.261719 225.847656 201.101562 226.121094 200.992188 C 226.390625 200.878906 226.671875 200.828125 226.96875 200.828125 C 227.261719 200.832031 227.542969 200.890625 227.8125 201.007812 C 228.082031 201.121094 228.316406 201.285156 228.523438 201.492188 Z M 224.871094 197.574219 C 225.765625 198.363281 225.601562 199.847656 224.707031 200.691406 C 224.507812 200.894531 224.28125 201.054688 224.023438 201.167969 C 223.769531 201.285156 223.5 201.351562 223.214844 201.363281 C 222.933594 201.375 222.660156 201.339844 222.394531 201.246094 C 222.125 201.15625 221.882812 201.019531 221.667969 200.835938 C 220.847656 200.109375 220.886719 198.753906 221.734375 197.824219 C 221.925781 197.601562 222.15625 197.421875 222.417969 197.289062 C 222.679688 197.15625 222.957031 197.078125 223.253906 197.054688 C 223.546875 197.03125 223.835938 197.0625 224.113281 197.152344 C 224.394531 197.246094 224.648438 197.386719 224.871094 197.574219 Z M 220.902344 193.972656 C 221.113281 194.179688 221.277344 194.417969 221.398438 194.6875 C 221.515625 194.957031 221.578125 195.242188 221.582031 195.535156 C 221.589844 195.832031 221.539062 196.117188 221.433594 196.390625 C 221.324219 196.667969 221.171875 196.914062 220.96875 197.128906 C 220.128906 198.0625 218.789062 198.222656 217.980469 197.488281 C 217.117188 196.824219 217.019531 195.5 217.785156 194.476562 C 218.554688 193.457031 219.960938 193.246094 220.902344 193.972656 Z M 213.578125 191.507812 C 214.242188 190.472656 215.683594 190.023438 216.613281 190.777344 C 216.84375 190.960938 217.027344 191.179688 217.171875 191.4375 C 217.3125 191.695312 217.398438 191.96875 217.433594 192.261719 C 217.464844 192.554688 217.4375 192.839844 217.355469 193.121094 C 217.273438 193.402344 217.140625 193.660156 216.957031 193.886719 C 216.199219 194.894531 214.867188 195.179688 213.996094 194.519531 C 213.777344 194.339844 213.597656 194.128906 213.457031 193.882812 C 213.320312 193.632812 213.230469 193.371094 213.191406 193.089844 C 213.152344 192.808594 213.167969 192.53125 213.234375 192.257812 C 213.300781 191.980469 213.417969 191.726562 213.578125 191.496094 Z M 209.144531 188.863281 C 209.746094 187.722656 211.066406 187.292969 212.074219 187.929688 C 212.320312 188.085938 212.527344 188.285156 212.691406 188.527344 C 212.855469 188.769531 212.96875 189.035156 213.027344 189.320312 C 213.085938 189.609375 213.085938 189.894531 213.03125 190.183594 C 212.972656 190.46875 212.859375 190.734375 212.695312 190.976562 C 212.019531 192.039062 210.710938 192.449219 209.785156 191.878906 C 208.855469 191.308594 208.566406 189.9375 209.144531 188.847656 Z M 204.480469 186.625 C 204.582031 186.355469 204.734375 186.113281 204.933594 185.90625 C 205.136719 185.699219 205.375 185.539062 205.640625 185.429688 C 205.910156 185.316406 206.191406 185.265625 206.480469 185.269531 C 206.773438 185.277344 207.050781 185.339844 207.3125 185.460938 C 207.574219 185.59375 207.796875 185.773438 207.984375 185.996094 C 208.171875 186.21875 208.304688 186.472656 208.390625 186.75 C 208.472656 187.03125 208.5 187.3125 208.46875 187.605469 C 208.433594 187.894531 208.347656 188.164062 208.203125 188.417969 C 207.617188 189.535156 206.34375 190.0625 205.363281 189.589844 C 204.386719 189.121094 203.992188 187.773438 204.488281 186.613281 Z M 199.636719 184.820312 C 199.71875 184.539062 199.851562 184.285156 200.035156 184.058594 C 200.222656 183.835938 200.445312 183.652344 200.703125 183.519531 C 200.960938 183.382812 201.238281 183.304688 201.53125 183.285156 C 201.820312 183.261719 202.105469 183.296875 202.382812 183.390625 C 202.652344 183.496094 202.890625 183.652344 203.097656 183.855469 C 203.304688 184.0625 203.460938 184.296875 203.570312 184.566406 C 203.679688 184.835938 203.726562 185.113281 203.722656 185.40625 C 203.714844 185.695312 203.648438 185.972656 203.527344 186.234375 C 203.039062 187.398438 201.8125 188.042969 200.78125 187.667969 C 199.753906 187.292969 199.253906 186 199.644531 184.804688 Z M 194.671875 183.417969 C 194.730469 183.128906 194.84375 182.867188 195.007812 182.625 C 195.171875 182.382812 195.378906 182.183594 195.625 182.023438 C 195.871094 181.867188 196.136719 181.761719 196.425781 181.710938 C 196.714844 181.660156 197.003906 181.664062 197.289062 181.730469 C 198.441406 182.027344 199.066406 183.230469 198.660156 184.46875 C 198.285156 185.636719 197.105469 186.402344 196.050781 186.136719 C 194.992188 185.867188 194.386719 184.628906 194.679688 183.402344 Z M 189.613281 182.421875 C 189.648438 182.132812 189.738281 181.859375 189.882812 181.601562 C 190.027344 181.347656 190.214844 181.128906 190.445312 180.945312 C 190.675781 180.765625 190.933594 180.632812 191.21875 180.554688 C 191.5 180.476562 191.789062 180.453125 192.082031 180.488281 C 193.273438 180.617188 193.953125 181.964844 193.671875 183.15625 C 193.621094 183.433594 193.519531 183.691406 193.371094 183.929688 C 193.21875 184.167969 193.03125 184.371094 192.804688 184.539062 C 192.582031 184.707031 192.332031 184.828125 192.058594 184.902344 C 191.789062 184.976562 191.511719 185 191.230469 184.972656 C 190.148438 184.800781 189.429688 183.65625 189.613281 182.421875 Z M 186.78125 179.683594 C 187.074219 179.738281 187.34375 179.847656 187.589844 180.007812 C 187.839844 180.167969 188.046875 180.367188 188.21875 180.609375 C 188.386719 180.851562 188.503906 181.117188 188.566406 181.40625 C 188.632812 181.691406 188.636719 181.980469 188.589844 182.273438 C 188.410156 183.519531 187.390625 184.398438 186.308594 184.222656 C 185.210938 184.144531 184.386719 183.109375 184.480469 181.84375 C 184.574219 180.578125 185.585938 179.578125 186.78125 179.667969 Z M 181.421875 179.410156 C 181.714844 179.433594 181.996094 179.511719 182.257812 179.644531 C 182.519531 179.777344 182.746094 179.957031 182.9375 180.183594 C 183.125 180.40625 183.265625 180.660156 183.355469 180.9375 C 183.441406 181.21875 183.472656 181.507812 183.445312 181.800781 C 183.367188 183.058594 182.421875 184.03125 181.328125 183.972656 C 181.046875 183.9375 180.78125 183.855469 180.53125 183.722656 C 180.28125 183.589844 180.0625 183.414062 179.875 183.203125 C 179.6875 182.992188 179.546875 182.75 179.449219 182.484375 C 179.351562 182.222656 179.304688 181.949219 179.304688 181.664062 C 179.273438 180.371094 180.230469 179.28125 181.421875 179.382812 Z M 176.0625 179.546875 C 176.355469 179.539062 176.636719 179.589844 176.90625 179.699219 C 177.175781 179.808594 177.414062 179.964844 177.621094 180.167969 C 177.828125 180.375 177.988281 180.609375 178.097656 180.878906 C 178.207031 181.148438 178.261719 181.429688 178.257812 181.71875 C 178.289062 182.980469 177.433594 184.050781 176.335938 184.101562 C 175.238281 184.152344 174.253906 183.175781 174.125 181.910156 C 174.082031 181.621094 174.097656 181.335938 174.175781 181.054688 C 174.253906 180.773438 174.382812 180.519531 174.566406 180.292969 C 174.753906 180.0625 174.972656 179.882812 175.234375 179.75 C 175.496094 179.613281 175.769531 179.539062 176.0625 179.519531 Z M 170.730469 180.09375 C 171.019531 180.054688 171.300781 180.074219 171.582031 180.15625 C 171.863281 180.234375 172.113281 180.367188 172.339844 180.550781 C 172.566406 180.734375 172.746094 180.953125 172.878906 181.214844 C 173.011719 181.472656 173.085938 181.746094 173.105469 182.035156 C 173.242188 183.289062 172.476562 184.445312 171.394531 184.609375 C 170.3125 184.773438 169.25 183.898438 169.019531 182.660156 C 168.953125 182.375 168.945312 182.085938 168.996094 181.796875 C 169.046875 181.511719 169.15625 181.242188 169.316406 181 C 169.480469 180.753906 169.683594 180.550781 169.929688 180.390625 C 170.171875 180.230469 170.441406 180.125 170.730469 180.074219 Z M 165.464844 181.054688 C 166.617188 180.746094 167.75 181.527344 167.996094 182.796875 C 168.226562 184 167.558594 185.210938 166.507812 185.496094 C 165.457031 185.78125 164.3125 185.003906 163.980469 183.792969 C 163.894531 183.511719 163.867188 183.226562 163.898438 182.9375 C 163.925781 182.644531 164.011719 182.371094 164.152344 182.113281 C 164.289062 181.855469 164.472656 181.636719 164.703125 181.453125 C 164.929688 181.269531 165.183594 181.136719 165.464844 181.054688 Z M 160.296875 182.457031 C 161.394531 182.007812 162.652344 182.871094 162.984375 184.046875 C 163.070312 184.3125 163.105469 184.589844 163.089844 184.871094 C 163.074219 185.152344 163.007812 185.417969 162.890625 185.675781 C 162.769531 185.929688 162.609375 186.15625 162.40625 186.351562 C 162.203125 186.546875 161.96875 186.695312 161.710938 186.804688 C 160.683594 187.179688 159.5 186.53125 159.0625 185.347656 C 158.953125 185.074219 158.898438 184.789062 158.902344 184.496094 C 158.902344 184.199219 158.964844 183.917969 159.078125 183.648438 C 159.195312 183.375 159.359375 183.136719 159.570312 182.929688 C 159.78125 182.722656 160.023438 182.566406 160.296875 182.457031 Z M 155.257812 184.292969 C 155.542969 184.203125 155.832031 184.167969 156.125 184.1875 C 156.421875 184.210938 156.703125 184.289062 156.96875 184.421875 C 157.234375 184.554688 157.464844 184.730469 157.660156 184.953125 C 157.851562 185.175781 158 185.429688 158.09375 185.707031 C 158.535156 186.886719 158.0625 188.144531 157.035156 188.515625 C 156.042969 188.972656 154.824219 188.445312 154.289062 187.300781 C 153.757812 186.15625 154.179688 184.792969 155.257812 184.292969 Z M 150.425781 186.605469 C 150.695312 186.488281 150.976562 186.421875 151.273438 186.417969 C 151.566406 186.410156 151.851562 186.457031 152.125 186.566406 C 152.402344 186.671875 152.644531 186.824219 152.859375 187.027344 C 153.070312 187.230469 153.238281 187.46875 153.355469 187.738281 C 153.902344 188.875 153.535156 190.183594 152.550781 190.648438 C 152.289062 190.757812 152.019531 190.816406 151.734375 190.824219 C 151.453125 190.832031 151.179688 190.785156 150.914062 190.691406 C 150.648438 190.59375 150.410156 190.457031 150.195312 190.269531 C 149.980469 190.085938 149.808594 189.871094 149.675781 189.621094 C 149.058594 188.554688 149.328125 187.078125 150.425781 186.605469 Z M 145.792969 189.304688 C 146.046875 189.152344 146.320312 189.0625 146.617188 189.023438 C 146.910156 188.988281 147.199219 189.007812 147.484375 189.089844 C 147.765625 189.171875 148.023438 189.304688 148.253906 189.488281 C 148.484375 189.675781 148.671875 189.898438 148.808594 190.15625 C 149.445312 191.253906 149.203125 192.589844 148.261719 193.167969 C 147.320312 193.746094 145.984375 193.347656 145.28125 192.347656 C 144.539062 191.265625 144.773438 189.910156 145.792969 189.304688 Z M 141.398438 192.367188 C 141.636719 192.199219 141.898438 192.085938 142.183594 192.023438 C 142.46875 191.960938 142.757812 191.957031 143.042969 192.011719 C 143.328125 192.066406 143.59375 192.171875 143.835938 192.335938 C 144.078125 192.5 144.28125 192.703125 144.4375 192.945312 C 145.164062 193.980469 145.042969 195.347656 144.164062 196 C 143.28125 196.652344 141.933594 196.386719 141.125 195.417969 C 140.933594 195.199219 140.789062 194.953125 140.695312 194.679688 C 140.605469 194.402344 140.574219 194.121094 140.597656 193.832031 C 140.625 193.542969 140.707031 193.273438 140.847656 193.019531 C 140.984375 192.761719 141.171875 192.546875 141.398438 192.367188 Z M 137.285156 195.78125 C 137.503906 195.589844 137.75 195.449219 138.027344 195.359375 C 138.304688 195.269531 138.589844 195.242188 138.878906 195.269531 C 139.167969 195.296875 139.441406 195.382812 139.695312 195.523438 C 139.949219 195.664062 140.167969 195.851562 140.34375 196.082031 C 141.167969 197.050781 141.167969 198.4375 140.34375 199.167969 C 139.519531 199.902344 138.160156 199.761719 137.285156 198.847656 C 137.074219 198.648438 136.910156 198.414062 136.796875 198.148438 C 136.683594 197.882812 136.625 197.605469 136.625 197.316406 C 136.625 197.023438 136.683594 196.746094 136.796875 196.480469 C 136.910156 196.214844 137.074219 195.980469 137.285156 195.78125 Z M 133.441406 199.515625 C 134.25 198.636719 135.605469 198.632812 136.507812 199.550781 C 137.410156 200.46875 137.515625 201.832031 136.78125 202.636719 C 136.046875 203.441406 134.679688 203.429688 133.722656 202.601562 C 133.492188 202.417969 133.3125 202.199219 133.171875 201.941406 C 133.035156 201.683594 132.953125 201.410156 132.925781 201.117188 C 132.898438 200.828125 132.929688 200.542969 133.019531 200.265625 C 133.109375 199.984375 133.25 199.734375 133.441406 199.515625 Z M 129.925781 203.550781 C 130.609375 202.570312 132.070312 202.546875 133.019531 203.367188 C 133.238281 203.542969 133.421875 203.753906 133.5625 203.996094 C 133.707031 204.238281 133.800781 204.5 133.84375 204.777344 C 133.890625 205.054688 133.882812 205.332031 133.828125 205.609375 C 133.769531 205.882812 133.664062 206.140625 133.511719 206.378906 C 132.859375 207.253906 131.5 207.359375 130.492188 206.617188 C 130.25 206.453125 130.046875 206.246094 129.886719 206 C 129.726562 205.753906 129.617188 205.488281 129.566406 205.199219 C 129.511719 204.914062 129.515625 204.625 129.578125 204.339844 C 129.640625 204.054688 129.757812 203.789062 129.925781 203.550781 Z M 126.746094 207.855469 C 127.390625 206.855469 128.851562 206.71875 129.859375 207.449219 C 130.867188 208.175781 131.140625 209.464844 130.554688 210.386719 C 129.964844 211.304688 128.65625 211.542969 127.582031 210.886719 C 127.324219 210.742188 127.105469 210.550781 126.925781 210.316406 C 126.746094 210.085938 126.617188 209.828125 126.539062 209.542969 C 126.460938 209.257812 126.4375 208.972656 126.476562 208.679688 C 126.511719 208.386719 126.601562 208.113281 126.746094 207.855469 Z M 123.960938 212.429688 C 124.125 212.183594 124.324219 211.976562 124.570312 211.8125 C 124.8125 211.644531 125.078125 211.53125 125.367188 211.46875 C 125.65625 211.40625 125.945312 211.402344 126.234375 211.453125 C 126.523438 211.503906 126.796875 211.609375 127.042969 211.769531 C 128.125 212.417969 128.546875 213.703125 127.96875 214.632812 C 127.390625 215.558594 126.183594 215.945312 125.039062 215.375 C 123.894531 214.800781 123.378906 213.464844 123.960938 212.429688 Z M 121.605469 217.234375 C 121.738281 216.972656 121.917969 216.746094 122.144531 216.558594 C 122.371094 216.371094 122.621094 216.230469 122.902344 216.144531 C 123.183594 216.058594 123.472656 216.027344 123.765625 216.054688 C 124.058594 216.082031 124.332031 216.164062 124.59375 216.304688 C 125.726562 216.851562 126.261719 218.113281 125.78125 219.089844 C 125.640625 219.335938 125.460938 219.546875 125.242188 219.726562 C 125.023438 219.90625 124.78125 220.039062 124.511719 220.128906 C 124.242188 220.21875 123.96875 220.253906 123.683594 220.242188 C 123.402344 220.230469 123.132812 220.164062 122.871094 220.050781 C 121.703125 219.585938 121.046875 218.285156 121.605469 217.234375 Z M 119.652344 222.207031 C 119.761719 221.9375 119.917969 221.695312 120.121094 221.488281 C 120.328125 221.28125 120.566406 221.121094 120.835938 221.007812 C 121.105469 220.898438 121.386719 220.84375 121.679688 220.847656 C 121.972656 220.847656 122.253906 220.90625 122.519531 221.023438 C 123.695312 221.488281 124.347656 222.691406 123.972656 223.710938 C 123.597656 224.726562 122.300781 225.261719 121.097656 224.894531 C 120.816406 224.824219 120.5625 224.699219 120.332031 224.519531 C 120.105469 224.339844 119.921875 224.121094 119.785156 223.867188 C 119.648438 223.613281 119.566406 223.339844 119.542969 223.050781 C 119.519531 222.761719 119.558594 222.480469 119.652344 222.207031 Z M 118.113281 227.320312 C 118.191406 227.039062 118.324219 226.785156 118.507812 226.558594 C 118.691406 226.328125 118.914062 226.148438 119.175781 226.011719 C 119.433594 225.875 119.710938 225.796875 120.003906 225.777344 C 120.296875 225.753906 120.582031 225.789062 120.859375 225.886719 C 122.066406 226.246094 122.832031 227.398438 122.5625 228.453125 C 122.289062 229.503906 121.0625 230.144531 119.816406 229.878906 C 119.53125 229.832031 119.265625 229.726562 119.019531 229.566406 C 118.777344 229.410156 118.574219 229.207031 118.414062 228.964844 C 118.253906 228.722656 118.144531 228.460938 118.09375 228.175781 C 118.042969 227.886719 118.046875 227.605469 118.113281 227.320312 Z M 117.015625 232.542969 C 117.066406 232.261719 117.167969 232 117.328125 231.757812 C 117.484375 231.515625 117.683594 231.316406 117.925781 231.160156 C 118.167969 231 118.429688 230.898438 118.714844 230.847656 C 119 230.800781 119.28125 230.8125 119.5625 230.878906 C 120.800781 231.140625 121.675781 232.222656 121.511719 233.300781 C 121.347656 234.378906 120.199219 235.121094 118.949219 234.960938 C 118.65625 234.933594 118.382812 234.851562 118.125 234.714844 C 117.867188 234.574219 117.648438 234.394531 117.464844 234.167969 C 117.28125 233.9375 117.148438 233.683594 117.070312 233.40625 C 116.988281 233.125 116.964844 232.839844 117.003906 232.550781 Z M 118.800781 235.980469 C 119.082031 236.003906 119.351562 236.082031 119.605469 236.207031 C 119.859375 236.328125 120.082031 236.496094 120.273438 236.703125 C 120.464844 236.910156 120.613281 237.144531 120.71875 237.40625 C 120.824219 237.671875 120.878906 237.941406 120.882812 238.226562 C 120.835938 239.320312 119.765625 240.140625 118.503906 240.097656 C 118.207031 240.09375 117.925781 240.03125 117.65625 239.917969 C 117.386719 239.800781 117.148438 239.636719 116.945312 239.425781 C 116.738281 239.214844 116.585938 238.972656 116.476562 238.699219 C 116.367188 238.425781 116.316406 238.140625 116.324219 237.847656 C 116.324219 236.660156 117.539062 235.835938 118.785156 235.984375 Z M 118.449219 241.128906 C 119.714844 241.179688 120.6875 242.105469 120.625 243.195312 C 120.6875 244.289062 119.714844 245.207031 118.449219 245.257812 C 118.152344 245.300781 117.855469 245.28125 117.5625 245.195312 C 117.269531 245.113281 117.011719 244.96875 116.78125 244.773438 C 116.550781 244.574219 116.375 244.335938 116.246094 244.0625 C 116.121094 243.785156 116.058594 243.496094 116.058594 243.195312 C 116.058594 242.890625 116.121094 242.601562 116.246094 242.328125 C 116.375 242.050781 116.550781 241.8125 116.78125 241.617188 C 117.011719 241.417969 117.269531 241.277344 117.5625 241.191406 C 117.855469 241.105469 118.152344 241.085938 118.449219 241.128906 Z M 116.324219 248.542969 C 116.316406 248.25 116.367188 247.964844 116.476562 247.691406 C 116.582031 247.417969 116.738281 247.175781 116.945312 246.964844 C 117.148438 246.75 117.386719 246.585938 117.65625 246.46875 C 117.925781 246.351562 118.207031 246.292969 118.503906 246.289062 C 119.765625 246.234375 120.835938 247.074219 120.882812 248.164062 C 120.878906 248.449219 120.824219 248.71875 120.71875 248.980469 C 120.613281 249.242188 120.464844 249.476562 120.273438 249.683594 C 120.082031 249.890625 119.859375 250.058594 119.601562 250.179688 C 119.347656 250.304688 119.082031 250.378906 118.800781 250.40625 C 117.539062 250.5625 116.324219 249.742188 116.308594 248.546875 Z M 117.003906 253.847656 C 116.964844 253.558594 116.988281 253.273438 117.066406 252.992188 C 117.144531 252.710938 117.277344 252.457031 117.460938 252.230469 C 117.644531 252.003906 117.863281 251.820312 118.121094 251.679688 C 118.378906 251.542969 118.652344 251.457031 118.945312 251.429688 C 120.199219 251.273438 121.351562 252.015625 121.511719 253.09375 C 121.671875 254.171875 120.800781 255.257812 119.5625 255.511719 C 119.28125 255.585938 118.996094 255.597656 118.710938 255.546875 C 118.425781 255.5 118.160156 255.398438 117.917969 255.238281 C 117.675781 255.082031 117.472656 254.882812 117.3125 254.640625 C 117.15625 254.398438 117.050781 254.132812 117.003906 253.847656 Z M 118.101562 259.074219 C 118.035156 258.792969 118.027344 258.507812 118.078125 258.222656 C 118.128906 257.933594 118.238281 257.671875 118.398438 257.429688 C 118.558594 257.1875 118.761719 256.984375 119.003906 256.828125 C 119.25 256.667969 119.515625 256.5625 119.800781 256.511719 C 121.035156 256.238281 122.269531 256.886719 122.546875 257.941406 C 122.820312 258.996094 122.050781 260.132812 120.839844 260.507812 C 120.566406 260.601562 120.28125 260.636719 119.992188 260.613281 C 119.703125 260.589844 119.429688 260.511719 119.171875 260.375 C 118.914062 260.242188 118.691406 260.058594 118.507812 259.835938 C 118.324219 259.609375 118.191406 259.355469 118.113281 259.078125 Z M 119.640625 264.191406 C 119.542969 263.917969 119.507812 263.636719 119.53125 263.347656 C 119.554688 263.058594 119.636719 262.785156 119.773438 262.53125 C 119.914062 262.277344 120.097656 262.058594 120.324219 261.878906 C 120.554688 261.703125 120.808594 261.578125 121.089844 261.507812 C 122.296875 261.140625 123.589844 261.667969 123.96875 262.691406 C 124.34375 263.714844 123.691406 264.914062 122.515625 265.378906 C 122.246094 265.492188 121.96875 265.550781 121.675781 265.550781 C 121.382812 265.554688 121.101562 265.5 120.832031 265.386719 C 120.5625 265.277344 120.328125 265.117188 120.121094 264.910156 C 119.917969 264.703125 119.761719 264.460938 119.652344 264.191406 Z M 121.589844 269.167969 C 121.042969 268.113281 121.691406 266.8125 122.859375 266.347656 C 123.117188 266.234375 123.386719 266.167969 123.671875 266.15625 C 123.953125 266.144531 124.230469 266.179688 124.5 266.269531 C 124.765625 266.359375 125.011719 266.492188 125.230469 266.671875 C 125.449219 266.851562 125.628906 267.0625 125.769531 267.308594 C 126.246094 268.289062 125.710938 269.539062 124.578125 270.09375 C 124.320312 270.230469 124.046875 270.3125 123.753906 270.339844 C 123.460938 270.367188 123.175781 270.335938 122.898438 270.25 C 122.617188 270.160156 122.367188 270.023438 122.144531 269.835938 C 121.917969 269.648438 121.738281 269.425781 121.605469 269.167969 Z M 123.949219 273.96875 C 123.367188 272.933594 123.914062 271.578125 125.027344 271.023438 C 126.140625 270.472656 127.417969 270.820312 127.957031 271.765625 C 128.492188 272.714844 128.113281 273.980469 127.03125 274.628906 C 126.78125 274.785156 126.515625 274.890625 126.226562 274.941406 C 125.9375 274.992188 125.648438 274.988281 125.359375 274.925781 C 125.074219 274.863281 124.808594 274.75 124.566406 274.582031 C 124.324219 274.417969 124.121094 274.210938 123.960938 273.96875 Z M 126.746094 278.542969 C 126.601562 278.285156 126.511719 278.011719 126.472656 277.722656 C 126.4375 277.429688 126.457031 277.140625 126.535156 276.859375 C 126.609375 276.574219 126.738281 276.316406 126.917969 276.082031 C 127.097656 275.847656 127.316406 275.660156 127.570312 275.511719 C 128.648438 274.855469 129.980469 275.078125 130.542969 276.011719 C 131.105469 276.945312 130.890625 278.203125 129.847656 278.953125 C 128.808594 279.703125 127.402344 279.542969 126.746094 278.542969 Z M 129.925781 282.847656 C 129.753906 282.609375 129.636719 282.347656 129.574219 282.0625 C 129.511719 281.773438 129.503906 281.488281 129.554688 281.199219 C 129.605469 280.910156 129.710938 280.640625 129.871094 280.394531 C 130.03125 280.148438 130.230469 279.941406 130.472656 279.777344 C 131.496094 279.03125 132.855469 279.136719 133.492188 280.015625 C 133.648438 280.253906 133.753906 280.507812 133.808594 280.785156 C 133.867188 281.058594 133.875 281.335938 133.828125 281.617188 C 133.785156 281.894531 133.691406 282.15625 133.546875 282.398438 C 133.40625 282.640625 133.222656 282.851562 133.003906 283.027344 C 132.070312 283.851562 130.609375 283.832031 129.925781 282.847656 Z M 133.441406 286.886719 C 133.25 286.664062 133.109375 286.414062 133.019531 286.136719 C 132.929688 285.859375 132.898438 285.574219 132.925781 285.285156 C 132.949219 284.992188 133.03125 284.71875 133.167969 284.460938 C 133.304688 284.203125 133.488281 283.980469 133.714844 283.796875 C 134.671875 282.976562 136.042969 282.953125 136.777344 283.761719 C 137.507812 284.566406 137.371094 285.96875 136.5 286.847656 C 135.632812 287.726562 134.265625 287.761719 133.441406 286.886719 Z M 137.285156 290.621094 C 137.074219 290.421875 136.914062 290.1875 136.796875 289.921875 C 136.683594 289.652344 136.628906 289.375 136.628906 289.085938 C 136.628906 288.796875 136.683594 288.515625 136.796875 288.25 C 136.914062 287.984375 137.074219 287.75 137.285156 287.550781 C 138.164062 286.644531 139.539062 286.507812 140.347656 287.238281 C 141.160156 287.972656 141.15625 289.363281 140.347656 290.328125 C 140.171875 290.558594 139.953125 290.742188 139.699219 290.882812 C 139.441406 291.023438 139.171875 291.109375 138.878906 291.136719 C 138.589844 291.164062 138.304688 291.132812 138.027344 291.042969 C 137.75 290.953125 137.503906 290.8125 137.285156 290.621094 Z M 141.398438 294.03125 C 141.171875 293.855469 140.988281 293.636719 140.847656 293.382812 C 140.707031 293.128906 140.625 292.855469 140.601562 292.566406 C 140.574219 292.277344 140.605469 291.996094 140.699219 291.71875 C 140.789062 291.445312 140.933594 291.199219 141.125 290.984375 C 141.925781 290.011719 143.296875 289.746094 144.171875 290.398438 C 145.046875 291.050781 145.164062 292.417969 144.445312 293.453125 C 144.289062 293.699219 144.085938 293.902344 143.84375 294.066406 C 143.601562 294.230469 143.335938 294.339844 143.046875 294.394531 C 142.761719 294.449219 142.472656 294.445312 142.1875 294.382812 C 141.902344 294.320312 141.636719 294.203125 141.398438 294.03125 Z M 148.808594 296.242188 C 148.671875 296.503906 148.484375 296.726562 148.253906 296.910156 C 148.023438 297.09375 147.765625 297.226562 147.484375 297.308594 C 147.199219 297.390625 146.910156 297.410156 146.617188 297.375 C 146.320312 297.335938 146.046875 297.246094 145.792969 297.097656 C 144.765625 296.488281 144.53125 295.136719 145.265625 294.085938 C 145.96875 293.070312 147.304688 292.699219 148.246094 293.261719 C 149.191406 293.828125 149.429688 295.152344 148.808594 296.242188 Z M 153.367188 298.664062 C 153.25 298.933594 153.082031 299.167969 152.871094 299.371094 C 152.65625 299.574219 152.414062 299.726562 152.140625 299.835938 C 151.863281 299.941406 151.578125 299.988281 151.285156 299.980469 C 150.992188 299.976562 150.710938 299.910156 150.441406 299.792969 C 149.34375 299.320312 149.066406 297.847656 149.691406 296.78125 C 149.824219 296.535156 149.996094 296.320312 150.207031 296.136719 C 150.421875 295.953125 150.660156 295.816406 150.925781 295.722656 C 151.1875 295.628906 151.460938 295.585938 151.742188 295.589844 C 152.023438 295.597656 152.292969 295.65625 152.550781 295.761719 C 153.535156 296.21875 153.894531 297.527344 153.355469 298.664062 Z M 158.105469 300.703125 C 158.007812 300.984375 157.863281 301.234375 157.667969 301.453125 C 157.472656 301.675781 157.242188 301.851562 156.976562 301.984375 C 156.710938 302.113281 156.433594 302.191406 156.136719 302.210938 C 155.84375 302.234375 155.554688 302.199219 155.273438 302.105469 C 154.195312 301.605469 153.765625 300.246094 154.296875 299.109375 C 154.828125 297.972656 156.0625 297.441406 157.039062 297.902344 C 158.0625 298.265625 158.535156 299.527344 158.09375 300.703125 Z M 162.996094 302.347656 C 162.667969 303.523438 161.417969 304.386719 160.308594 303.933594 C 160.035156 303.824219 159.792969 303.667969 159.585938 303.460938 C 159.375 303.253906 159.210938 303.019531 159.09375 302.746094 C 158.980469 302.476562 158.921875 302.195312 158.917969 301.902344 C 158.914062 301.609375 158.96875 301.324219 159.078125 301.050781 C 159.511719 299.867188 160.6875 299.222656 161.710938 299.59375 C 161.96875 299.703125 162.203125 299.851562 162.40625 300.046875 C 162.609375 300.242188 162.773438 300.46875 162.890625 300.726562 C 163.007812 300.980469 163.074219 301.25 163.089844 301.53125 C 163.105469 301.8125 163.070312 302.085938 162.984375 302.355469 Z M 168.011719 303.597656 C 167.761719 304.867188 166.636719 305.648438 165.480469 305.339844 C 165.199219 305.257812 164.945312 305.125 164.714844 304.941406 C 164.488281 304.757812 164.304688 304.535156 164.164062 304.277344 C 164.027344 304.023438 163.941406 303.746094 163.910156 303.457031 C 163.882812 303.167969 163.910156 302.882812 163.996094 302.601562 C 164.335938 301.386719 165.464844 300.621094 166.523438 300.894531 C 167.578125 301.167969 168.226562 302.398438 167.996094 303.605469 Z M 173.121094 304.375 C 173.101562 304.664062 173.023438 304.9375 172.890625 305.195312 C 172.757812 305.453125 172.578125 305.675781 172.355469 305.859375 C 172.128906 306.042969 171.875 306.175781 171.597656 306.253906 C 171.316406 306.332031 171.03125 306.355469 170.742188 306.316406 C 170.457031 306.265625 170.191406 306.160156 169.945312 306 C 169.703125 305.839844 169.5 305.640625 169.339844 305.398438 C 169.175781 305.15625 169.070312 304.890625 169.015625 304.605469 C 168.964844 304.320312 168.96875 304.035156 169.035156 303.75 C 169.265625 302.511719 170.328125 301.636719 171.40625 301.800781 C 172.488281 301.964844 173.234375 303.132812 173.105469 304.382812 Z M 176.078125 306.871094 C 175.789062 306.847656 175.515625 306.769531 175.257812 306.636719 C 175 306.503906 174.78125 306.324219 174.597656 306.097656 C 174.417969 305.875 174.285156 305.621094 174.210938 305.34375 C 174.132812 305.066406 174.113281 304.78125 174.15625 304.496094 C 174.285156 303.242188 175.273438 302.265625 176.367188 302.304688 C 177.460938 302.347656 178.324219 303.429688 178.289062 304.6875 C 178.296875 304.980469 178.242188 305.265625 178.132812 305.539062 C 178.019531 305.8125 177.859375 306.054688 177.648438 306.261719 C 177.4375 306.46875 177.195312 306.625 176.917969 306.734375 C 176.644531 306.839844 176.359375 306.886719 176.0625 306.878906 Z M 181.4375 307.007812 C 180.246094 307.105469 179.296875 306.019531 179.320312 304.753906 C 179.316406 304.472656 179.363281 304.199219 179.460938 303.933594 C 179.558594 303.667969 179.699219 303.429688 179.886719 303.214844 C 180.074219 303 180.292969 302.828125 180.542969 302.695312 C 180.792969 302.5625 181.058594 302.480469 181.339844 302.445312 C 182.4375 302.386719 183.382812 303.359375 183.457031 304.617188 C 183.488281 304.914062 183.457031 305.203125 183.367188 305.484375 C 183.28125 305.765625 183.140625 306.019531 182.949219 306.246094 C 182.757812 306.472656 182.527344 306.652344 182.261719 306.785156 C 182 306.917969 181.71875 306.996094 181.421875 307.015625 Z M 186.796875 306.730469 C 185.609375 306.824219 184.574219 305.824219 184.492188 304.574219 C 184.414062 303.324219 185.230469 302.273438 186.320312 302.191406 C 187.40625 302.019531 188.421875 302.898438 188.601562 304.144531 C 188.652344 304.4375 188.644531 304.726562 188.578125 305.015625 C 188.515625 305.304688 188.398438 305.570312 188.226562 305.8125 C 188.054688 306.054688 187.847656 306.257812 187.597656 306.414062 C 187.34375 306.574219 187.074219 306.679688 186.78125 306.730469 Z M 188.699219 301.257812 C 187.082031 301.570312 185.449219 301.738281 183.800781 301.765625 C 182.152344 301.78125 180.503906 302.082031 178.859375 301.894531 L 173.917969 301.636719 L 169.046875 300.894531 C 167.414062 300.660156 165.859375 300.105469 164.257812 299.746094 C 162.652344 299.386719 161.128906 298.769531 159.589844 298.21875 C 158.015625 297.714844 156.496094 297.078125 155.035156 296.308594 C 153.570312 295.574219 152.03125 294.972656 150.667969 294.042969 C 149.296875 293.152344 147.808594 292.417969 146.492188 291.425781 L 142.542969 288.472656 L 138.894531 285.160156 C 137.699219 284.027344 136.667969 282.742188 135.535156 281.550781 C 134.355469 280.394531 133.511719 278.96875 132.484375 277.6875 C 131.46875 276.390625 130.558594 275.019531 129.757812 273.582031 C 128.851562 272.210938 128.058594 270.777344 127.378906 269.277344 C 126.714844 267.78125 125.832031 266.375 125.355469 264.800781 C 124.824219 263.253906 124.175781 261.742188 123.710938 260.171875 L 122.484375 255.410156 C 122.160156 253.804688 121.984375 252.171875 121.707031 250.554688 C 121.367188 248.949219 121.457031 247.304688 121.320312 245.664062 C 121.171875 244.019531 121.171875 242.378906 121.320312 240.734375 C 121.457031 239.09375 121.355469 237.449219 121.703125 235.828125 C 121.976562 234.210938 122.160156 232.578125 122.480469 230.972656 L 123.707031 226.226562 C 124.175781 224.65625 124.824219 223.144531 125.351562 221.597656 C 125.828125 220.019531 126.726562 218.613281 127.375 217.117188 C 128.054688 215.617188 128.847656 214.183594 129.757812 212.8125 C 130.558594 211.371094 131.46875 210.003906 132.484375 208.703125 C 133.511719 207.425781 134.355469 205.996094 135.535156 204.84375 C 136.667969 203.652344 137.699219 202.378906 138.894531 201.238281 L 142.542969 197.921875 L 146.492188 194.96875 C 147.808594 193.976562 149.289062 193.238281 150.667969 192.351562 C 152.039062 191.417969 153.570312 190.820312 155.035156 190.082031 C 156.492188 189.320312 158.007812 188.6875 159.574219 188.183594 C 161.121094 187.636719 162.636719 186.980469 164.238281 186.65625 C 165.84375 186.328125 167.398438 185.742188 169.027344 185.511719 L 173.902344 184.765625 L 178.84375 184.507812 C 180.488281 184.320312 182.136719 184.621094 183.78125 184.636719 C 185.433594 184.667969 187.066406 184.839844 188.6875 185.160156 C 190.304688 185.433594 191.957031 185.558594 193.527344 186.058594 C 195.105469 186.507812 196.730469 186.796875 198.277344 187.34375 L 202.910156 189.03125 L 207.347656 191.160156 C 208.84375 191.851562 210.175781 192.835938 211.601562 193.640625 C 213.03125 194.445312 214.3125 195.5 215.644531 196.460938 C 216.996094 197.398438 218.261719 198.445312 219.4375 199.597656 C 220.65625 200.695312 221.910156 201.761719 222.96875 203.035156 C 224.027344 204.308594 225.28125 205.382812 226.207031 206.746094 C 227.132812 208.109375 228.210938 209.351562 229.132812 210.707031 L 231.691406 214.90625 C 232.464844 216.355469 233.125 217.855469 233.859375 219.320312 C 234.648438 220.769531 235.03125 222.382812 235.652344 223.894531 C 236.273438 225.40625 236.664062 227.007812 237.0625 228.597656 C 237.535156 230.171875 237.878906 231.773438 238.085938 233.402344 C 238.277344 235.027344 238.714844 236.625 238.722656 238.273438 L 238.980469 243.203125 L 238.722656 248.128906 C 238.722656 249.773438 238.277344 251.378906 238.085938 253.003906 C 237.878906 254.632812 237.535156 256.234375 237.0625 257.808594 C 236.664062 259.398438 236.296875 260.996094 235.652344 262.511719 C 235.011719 264.023438 234.648438 265.636719 233.859375 267.085938 C 233.125 268.550781 232.464844 270.054688 231.691406 271.5 L 229.132812 275.707031 C 228.210938 277.074219 227.167969 278.335938 226.207031 279.667969 C 225.246094 281 224.03125 282.132812 222.96875 283.378906 C 221.90625 284.628906 220.65625 285.710938 219.4375 286.8125 C 218.261719 287.964844 216.996094 289.011719 215.644531 289.953125 C 214.3125 290.917969 213.058594 291.992188 211.601562 292.769531 C 210.148438 293.546875 208.84375 294.5625 207.347656 295.253906 L 202.910156 297.382812 L 198.277344 299.046875 C 196.730469 299.59375 195.105469 299.886719 193.527344 300.335938 C 191.957031 300.84375 190.304688 300.964844 188.6875 301.238281 Z M 192.097656 305.9375 C 191.804688 305.96875 191.519531 305.949219 191.234375 305.867188 C 190.949219 305.789062 190.695312 305.660156 190.460938 305.476562 C 190.230469 305.296875 190.042969 305.078125 189.898438 304.820312 C 189.753906 304.566406 189.664062 304.292969 189.628906 304 C 189.441406 302.753906 190.175781 301.609375 191.25 301.453125 C 191.53125 301.421875 191.808594 301.445312 192.078125 301.519531 C 192.351562 301.59375 192.597656 301.71875 192.824219 301.886719 C 193.050781 302.054688 193.238281 302.257812 193.390625 302.496094 C 193.539062 302.734375 193.640625 302.988281 193.691406 303.265625 C 193.957031 304.449219 193.269531 305.796875 192.085938 305.925781 Z M 197.3125 304.691406 C 197.027344 304.753906 196.742188 304.761719 196.453125 304.710938 C 196.164062 304.660156 195.894531 304.554688 195.648438 304.398438 C 195.40625 304.238281 195.199219 304.039062 195.035156 303.796875 C 194.871094 303.558594 194.757812 303.292969 194.699219 303.007812 C 194.40625 301.78125 195.03125 300.5625 196.085938 300.296875 C 197.144531 300.027344 198.320312 300.796875 198.695312 301.964844 C 199.074219 303.179688 198.449219 304.386719 197.292969 304.679688 Z M 202.402344 303.03125 C 202.125 303.125 201.84375 303.160156 201.550781 303.140625 C 201.257812 303.117188 200.984375 303.039062 200.722656 302.902344 C 200.464844 302.769531 200.242188 302.589844 200.058594 302.363281 C 199.871094 302.136719 199.738281 301.882812 199.660156 301.601562 C 199.265625 300.40625 199.777344 299.136719 200.800781 298.753906 C 201.824219 298.371094 203.058594 299.027344 203.546875 300.1875 C 203.664062 300.453125 203.730469 300.730469 203.734375 301.019531 C 203.738281 301.308594 203.6875 301.585938 203.578125 301.855469 C 203.46875 302.121094 203.308594 302.359375 203.101562 302.5625 C 202.894531 302.761719 202.65625 302.917969 202.382812 303.019531 Z M 207.34375 300.960938 C 207.078125 301.082031 206.800781 301.144531 206.511719 301.152344 C 206.222656 301.15625 205.941406 301.105469 205.671875 300.996094 C 205.402344 300.886719 205.167969 300.726562 204.964844 300.515625 C 204.761719 300.308594 204.609375 300.070312 204.507812 299.796875 C 204.015625 298.640625 204.410156 297.308594 205.390625 296.835938 C 206.375 296.363281 207.648438 296.886719 208.234375 298.003906 C 208.375 298.257812 208.464844 298.53125 208.496094 298.824219 C 208.527344 299.113281 208.5 299.398438 208.414062 299.679688 C 208.328125 299.957031 208.1875 300.210938 208 300.433594 C 207.808594 300.65625 207.585938 300.832031 207.320312 300.964844 Z M 212.09375 298.496094 C 211.085938 299.132812 209.765625 298.703125 209.167969 297.5625 C 208.589844 296.46875 208.890625 295.132812 209.804688 294.550781 C 210.714844 293.972656 212.042969 294.390625 212.71875 295.457031 C 212.878906 295.699219 212.984375 295.964844 213.039062 296.25 C 213.09375 296.535156 213.089844 296.820312 213.03125 297.105469 C 212.96875 297.390625 212.855469 297.652344 212.691406 297.890625 C 212.523438 298.128906 212.320312 298.328125 212.074219 298.484375 Z M 216.597656 295.632812 C 215.671875 296.390625 214.230469 295.9375 213.578125 294.902344 C 213.417969 294.671875 213.304688 294.417969 213.238281 294.144531 C 213.175781 293.871094 213.160156 293.59375 213.199219 293.316406 C 213.238281 293.035156 213.324219 292.773438 213.464844 292.527344 C 213.601562 292.28125 213.777344 292.070312 213.996094 291.890625 C 214.867188 291.234375 216.191406 291.519531 216.957031 292.523438 C 217.140625 292.753906 217.273438 293.007812 217.355469 293.292969 C 217.4375 293.574219 217.460938 293.863281 217.425781 294.152344 C 217.394531 294.445312 217.304688 294.71875 217.160156 294.976562 C 217.015625 295.234375 216.828125 295.453125 216.597656 295.632812 Z M 220.890625 292.425781 C 219.949219 293.152344 218.542969 292.90625 217.777344 291.90625 C 217.011719 290.90625 217.105469 289.574219 217.96875 288.910156 C 218.777344 288.171875 220.117188 288.335938 220.957031 289.273438 C 221.160156 289.488281 221.316406 289.730469 221.421875 290.007812 C 221.53125 290.28125 221.582031 290.566406 221.578125 290.859375 C 221.574219 291.15625 221.511719 291.4375 221.394531 291.710938 C 221.277344 291.980469 221.113281 292.21875 220.902344 292.425781 Z M 224.859375 288.824219 C 224.636719 289.015625 224.382812 289.15625 224.101562 289.246094 C 223.820312 289.335938 223.535156 289.371094 223.242188 289.347656 C 222.945312 289.324219 222.667969 289.246094 222.40625 289.113281 C 222.144531 288.980469 221.914062 288.800781 221.726562 288.574219 C 220.875 287.644531 220.847656 286.292969 221.660156 285.566406 C 221.875 285.382812 222.113281 285.246094 222.382812 285.15625 C 222.648438 285.0625 222.921875 285.023438 223.207031 285.039062 C 223.488281 285.050781 223.757812 285.117188 224.015625 285.230469 C 224.269531 285.347656 224.496094 285.507812 224.695312 285.710938 C 225.601562 286.546875 225.765625 288.035156 224.871094 288.824219 Z M 228.511719 284.90625 C 228.308594 285.117188 228.070312 285.277344 227.800781 285.394531 C 227.53125 285.507812 227.25 285.570312 226.957031 285.570312 C 226.664062 285.574219 226.382812 285.523438 226.109375 285.410156 C 225.835938 285.300781 225.597656 285.144531 225.386719 284.9375 C 224.464844 284.082031 224.3125 282.726562 225.050781 281.925781 C 225.257812 281.730469 225.492188 281.582031 225.753906 281.472656 C 226.019531 281.367188 226.292969 281.308594 226.574219 281.300781 C 226.859375 281.292969 227.136719 281.339844 227.402344 281.433594 C 227.671875 281.527344 227.914062 281.667969 228.128906 281.851562 C 229.140625 282.644531 229.355469 284.046875 228.523438 284.90625 Z M 231.84375 280.707031 C 231.664062 280.933594 231.445312 281.121094 231.1875 281.261719 C 230.929688 281.402344 230.65625 281.484375 230.367188 281.515625 C 230.074219 281.542969 229.789062 281.515625 229.511719 281.429688 C 229.230469 281.34375 228.980469 281.207031 228.757812 281.015625 C 227.765625 280.238281 227.488281 278.894531 228.144531 278.023438 C 228.800781 277.152344 230.1875 277.015625 231.238281 277.714844 C 231.488281 277.863281 231.695312 278.058594 231.859375 278.296875 C 232.027344 278.53125 232.140625 278.792969 232.195312 279.078125 C 232.253906 279.363281 232.25 279.644531 232.191406 279.929688 C 232.128906 280.210938 232.011719 280.46875 231.84375 280.707031 Z M 234.808594 276.253906 C 234.652344 276.5 234.453125 276.703125 234.210938 276.863281 C 233.972656 277.027344 233.707031 277.136719 233.421875 277.191406 C 233.136719 277.246094 232.855469 277.242188 232.570312 277.183594 C 232.285156 277.121094 232.023438 277.003906 231.789062 276.835938 C 230.734375 276.140625 230.335938 274.816406 230.90625 273.886719 C 231.472656 272.953125 232.824219 272.699219 233.921875 273.3125 C 234.183594 273.441406 234.410156 273.617188 234.597656 273.839844 C 234.785156 274.0625 234.917969 274.3125 235.003906 274.59375 C 235.085938 274.871094 235.109375 275.15625 235.078125 275.441406 C 235.042969 275.730469 234.953125 276.003906 234.808594 276.253906 Z M 237.394531 271.574219 C 237.265625 271.832031 237.085938 272.054688 236.863281 272.242188 C 236.640625 272.425781 236.386719 272.558594 236.109375 272.636719 C 235.832031 272.71875 235.546875 272.738281 235.257812 272.703125 C 234.972656 272.664062 234.703125 272.570312 234.453125 272.421875 C 233.355469 271.816406 232.828125 270.527344 233.296875 269.542969 C 233.765625 268.5625 235.09375 268.175781 236.246094 268.703125 C 236.515625 268.8125 236.753906 268.972656 236.960938 269.179688 C 237.167969 269.386719 237.324219 269.625 237.433594 269.894531 C 237.542969 270.167969 237.59375 270.449219 237.585938 270.738281 C 237.578125 271.03125 237.515625 271.308594 237.394531 271.574219 Z M 239.589844 266.703125 C 239.21875 267.835938 237.871094 268.292969 236.699219 267.773438 C 236.433594 267.667969 236.199219 267.519531 235.988281 267.328125 C 235.78125 267.136719 235.613281 266.914062 235.484375 266.660156 C 235.359375 266.40625 235.28125 266.136719 235.253906 265.855469 C 235.226562 265.574219 235.25 265.292969 235.328125 265.019531 C 235.699219 263.996094 236.972656 263.507812 238.164062 263.925781 C 238.445312 264.015625 238.695312 264.152344 238.921875 264.339844 C 239.144531 264.53125 239.324219 264.753906 239.460938 265.015625 C 239.59375 265.277344 239.671875 265.554688 239.695312 265.847656 C 239.71875 266.136719 239.683594 266.421875 239.589844 266.703125 Z M 241.382812 261.664062 C 241.085938 262.816406 239.699219 263.363281 238.53125 262.957031 C 237.3125 262.539062 236.734375 261.402344 237.003906 260.347656 C 237.277344 259.292969 238.480469 258.691406 239.703125 259.007812 C 239.992188 259.074219 240.253906 259.191406 240.496094 259.359375 C 240.738281 259.53125 240.9375 259.742188 241.09375 259.988281 C 241.25 260.238281 241.355469 260.507812 241.40625 260.800781 C 241.453125 261.089844 241.449219 261.378906 241.382812 261.664062 Z M 242.71875 256.488281 C 242.636719 256.769531 242.503906 257.023438 242.320312 257.253906 C 242.136719 257.480469 241.917969 257.667969 241.660156 257.808594 C 241.402344 257.953125 241.128906 258.039062 240.835938 258.074219 C 240.546875 258.109375 240.257812 258.089844 239.976562 258.011719 C 238.75 257.699219 237.976562 256.59375 238.257812 255.546875 C 238.539062 254.496094 239.578125 253.769531 240.839844 253.988281 C 242.101562 254.207031 242.984375 255.328125 242.71875 256.488281 Z M 243.566406 251.207031 C 243.515625 251.496094 243.410156 251.761719 243.25 252.007812 C 243.089844 252.253906 242.886719 252.457031 242.644531 252.621094 C 242.402344 252.789062 242.136719 252.898438 241.847656 252.957031 C 241.5625 253.015625 241.273438 253.019531 240.984375 252.960938 C 239.738281 252.757812 238.859375 251.714844 239.03125 250.640625 C 239.203125 249.5625 240.316406 248.769531 241.550781 248.875 C 242.832031 248.984375 243.789062 250.042969 243.566406 251.207031 Z M 241.597656 247.851562 C 240.339844 247.753906 239.359375 246.785156 239.414062 245.695312 C 239.472656 244.605469 240.546875 243.726562 241.8125 243.726562 C 242.101562 243.714844 242.382812 243.761719 242.652344 243.867188 C 242.925781 243.972656 243.164062 244.128906 243.371094 244.335938 C 243.574219 244.539062 243.730469 244.777344 243.839844 245.046875 C 243.949219 245.316406 243.996094 245.59375 243.988281 245.886719 C 243.964844 246.175781 243.886719 246.453125 243.753906 246.710938 C 243.621094 246.96875 243.4375 247.191406 243.214844 247.378906 C 242.988281 247.5625 242.734375 247.699219 242.453125 247.78125 C 242.171875 247.863281 241.886719 247.886719 241.597656 247.851562 Z M 241.8125 242.695312 C 240.546875 242.695312 239.472656 241.816406 239.414062 240.722656 C 239.359375 239.632812 240.339844 238.667969 241.597656 238.566406 C 241.886719 238.535156 242.171875 238.558594 242.453125 238.640625 C 242.734375 238.722656 242.988281 238.859375 243.214844 239.042969 C 243.4375 239.230469 243.621094 239.453125 243.753906 239.710938 C 243.886719 239.972656 243.964844 240.246094 243.988281 240.539062 C 243.996094 240.828125 243.945312 241.105469 243.835938 241.375 C 243.726562 241.640625 243.570312 241.878906 243.363281 242.082031 C 243.160156 242.285156 242.921875 242.4375 242.652344 242.542969 C 242.378906 242.648438 242.101562 242.695312 241.8125 242.683594 Z M 241.8125 242.695312 " fill-opacity="1" fill-rule="nonzero"/><g clip-path="url(#f854ac0c70)"><path fill="#392c24" d="M 248.410156 237.476562 C 248.378906 235.558594 247.90625 233.6875 247.675781 231.792969 C 247.421875 229.898438 247.019531 228.03125 246.480469 226.191406 C 246.015625 224.335938 245.566406 222.480469 244.832031 220.71875 C 244.101562 218.953125 243.636719 217.078125 242.738281 215.382812 C 241.890625 213.671875 241.113281 211.921875 240.210938 210.238281 L 237.226562 205.339844 C 236.15625 203.757812 234.953125 202.261719 233.824219 200.722656 C 232.691406 199.179688 231.300781 197.839844 230.046875 196.386719 C 228.792969 194.929688 227.355469 193.667969 225.929688 192.386719 C 224.558594 191.054688 223.09375 189.839844 221.539062 188.734375 C 219.992188 187.609375 218.519531 186.375 216.832031 185.449219 C 215.144531 184.519531 213.605469 183.378906 211.871094 182.558594 L 206.6875 180.097656 L 201.292969 178.125 C 199.476562 177.496094 197.585938 177.121094 195.742188 176.609375 C 193.902344 176.0625 191.984375 175.867188 190.09375 175.558594 C 188.207031 175.207031 186.304688 175.007812 184.386719 174.964844 C 182.464844 174.933594 180.5625 174.628906 178.648438 174.820312 L 172.90625 175.125 L 167.226562 175.992188 C 165.335938 176.265625 163.507812 176.890625 161.640625 177.324219 C 159.773438 177.753906 157.988281 178.453125 156.183594 179.101562 C 154.359375 179.703125 152.597656 180.445312 150.894531 181.328125 C 149.179688 182.183594 147.398438 182.90625 145.800781 183.972656 C 144.203125 185.039062 142.472656 185.890625 140.9375 187.023438 L 136.34375 190.457031 L 132.089844 194.316406 C 130.71875 195.632812 129.488281 197.117188 128.175781 198.507812 C 126.820312 199.878906 125.808594 201.507812 124.609375 203.007812 C 123.4375 204.519531 122.378906 206.109375 121.433594 207.777344 C 120.386719 209.378906 119.460938 211.050781 118.664062 212.792969 C 117.878906 214.53125 116.882812 216.183594 116.308594 218.015625 C 115.671875 219.816406 114.933594 221.574219 114.386719 223.417969 L 112.96875 228.964844 C 112.582031 230.839844 112.367188 232.742188 112.054688 234.628906 C 111.675781 236.503906 111.761719 238.433594 111.605469 240.335938 C 111.445312 242.246094 111.445312 244.152344 111.605469 246.0625 C 111.75 247.980469 111.675781 249.894531 112.054688 251.769531 C 112.367188 253.65625 112.582031 255.558594 112.96875 257.433594 L 114.398438 262.984375 C 114.949219 264.816406 115.683594 266.585938 116.320312 268.386719 C 116.898438 270.21875 117.890625 271.867188 118.675781 273.609375 C 119.476562 275.347656 120.398438 277.019531 121.449219 278.625 C 122.390625 280.289062 123.449219 281.878906 124.625 283.394531 C 125.8125 284.890625 126.820312 286.535156 128.191406 287.890625 C 129.5 289.285156 130.722656 290.769531 132.105469 292.085938 L 136.355469 295.941406 L 140.953125 299.382812 C 142.488281 300.53125 144.199219 301.414062 145.8125 302.441406 C 147.425781 303.464844 149.195312 304.230469 150.90625 305.085938 C 152.613281 305.964844 154.375 306.703125 156.199219 307.300781 C 158 307.949219 159.765625 308.671875 161.652344 309.082031 C 163.542969 309.492188 165.347656 310.128906 167.238281 310.410156 L 172.921875 311.277344 L 178.660156 311.582031 C 180.582031 311.773438 182.488281 311.464844 184.398438 311.4375 C 186.320312 311.394531 188.222656 311.195312 190.109375 310.84375 C 192 310.53125 193.914062 310.355469 195.753906 309.792969 C 197.59375 309.285156 199.488281 308.921875 201.296875 308.289062 L 206.691406 306.316406 L 211.871094 303.839844 C 213.605469 303.015625 215.164062 301.902344 216.835938 300.949219 C 218.503906 299.992188 219.992188 298.792969 221.539062 297.664062 C 223.109375 296.558594 224.582031 295.339844 225.960938 294.007812 C 227.378906 292.722656 228.832031 291.476562 230.078125 290.007812 C 231.324219 288.539062 232.75 287.269531 233.847656 285.683594 C 234.941406 284.101562 236.179688 282.648438 237.253906 281.066406 L 240.199219 276.175781 C 241.101562 274.488281 241.878906 272.738281 242.726562 271.023438 C 243.625 269.332031 244.101562 267.464844 244.820312 265.691406 C 245.542969 263.917969 246.003906 262.058594 246.46875 260.214844 C 247.011719 258.378906 247.410156 256.511719 247.664062 254.617188 C 247.894531 252.722656 248.367188 250.851562 248.402344 248.9375 L 248.707031 243.199219 Z M 246.703125 248.785156 C 246.675781 250.652344 246.207031 252.472656 245.984375 254.324219 C 245.734375 256.171875 245.347656 257.992188 244.820312 259.78125 C 244.367188 261.589844 243.925781 263.402344 243.214844 265.128906 C 242.5 266.851562 242.050781 268.6875 241.171875 270.328125 C 240.347656 271.996094 239.585938 273.703125 238.703125 275.34375 L 235.808594 280.121094 C 234.761719 281.664062 233.589844 283.121094 232.492188 284.621094 C 231.390625 286.125 230.019531 287.421875 228.8125 288.839844 C 227.605469 290.253906 226.191406 291.484375 224.808594 292.738281 C 223.46875 294.039062 222.03125 295.226562 220.496094 296.300781 C 218.988281 297.394531 217.554688 298.601562 215.910156 299.5 C 214.269531 300.398438 212.757812 301.523438 211.066406 302.332031 L 206.011719 304.75 L 200.75 306.667969 C 198.992188 307.289062 197.148438 307.636719 195.347656 308.132812 C 193.558594 308.679688 191.691406 308.855469 189.84375 309.15625 C 188.003906 309.5 186.152344 309.6875 184.28125 309.722656 C 182.414062 309.753906 180.546875 310.0625 178.683594 309.867188 L 173.089844 309.570312 L 167.546875 308.726562 C 165.699219 308.453125 163.921875 307.847656 162.105469 307.425781 C 160.289062 307.007812 158.535156 306.332031 156.785156 305.695312 C 155.007812 305.113281 153.285156 304.394531 151.625 303.53125 C 149.953125 302.710938 148.214844 301.996094 146.660156 300.953125 C 145.082031 299.949219 143.414062 299.09375 141.917969 297.976562 L 137.441406 294.625 L 133.292969 290.859375 C 131.941406 289.574219 130.757812 288.121094 129.476562 286.773438 C 128.148438 285.449219 127.167969 283.84375 126.007812 282.390625 C 124.863281 280.917969 123.832031 279.363281 122.914062 277.738281 C 121.886719 276.175781 120.984375 274.546875 120.207031 272.847656 C 119.449219 271.152344 118.46875 269.542969 117.914062 267.757812 C 117.296875 266 116.574219 264.273438 116.042969 262.492188 L 114.648438 257.078125 C 114.28125 255.257812 114.0625 253.398438 113.757812 251.5625 C 113.386719 249.726562 113.46875 247.851562 113.320312 245.992188 C 113.164062 244.128906 113.164062 242.269531 113.320312 240.40625 C 113.46875 238.550781 113.386719 236.671875 113.757812 234.839844 C 114.0625 233 114.28125 231.144531 114.648438 229.320312 L 116.042969 223.910156 C 116.574219 222.128906 117.296875 220.402344 117.914062 218.644531 C 118.464844 216.859375 119.449219 215.253906 120.207031 213.554688 C 120.984375 211.855469 121.886719 210.226562 122.914062 208.664062 C 123.832031 207.035156 124.863281 205.484375 126.007812 204.007812 C 127.167969 202.550781 128.148438 200.949219 129.476562 199.628906 C 130.757812 198.261719 131.945312 196.824219 133.292969 195.535156 L 137.441406 191.777344 L 141.917969 188.425781 C 143.414062 187.304688 145.082031 186.449219 146.660156 185.445312 C 148.234375 184.445312 149.953125 183.699219 151.625 182.867188 C 153.289062 182.007812 155.007812 181.285156 156.785156 180.703125 C 158.539062 180.074219 160.269531 179.355469 162.105469 178.972656 C 163.9375 178.585938 165.699219 177.945312 167.546875 177.671875 L 173.089844 176.828125 L 178.683594 176.53125 C 180.546875 176.339844 182.414062 176.644531 184.28125 176.671875 C 186.152344 176.710938 188.007812 176.90625 189.847656 177.25 C 191.691406 177.554688 193.558594 177.726562 195.335938 178.273438 C 197.136719 178.773438 198.980469 179.121094 200.738281 179.742188 L 206 181.660156 L 211.054688 184.074219 C 212.757812 184.886719 214.28125 185.980469 215.902344 186.894531 C 217.519531 187.8125 218.976562 188.992188 220.488281 190.089844 C 222.019531 191.160156 223.457031 192.347656 224.796875 193.648438 C 226.171875 194.902344 227.601562 196.113281 228.800781 197.550781 C 230.003906 198.992188 231.414062 200.226562 232.480469 201.765625 C 233.546875 203.304688 234.753906 204.722656 235.796875 206.261719 L 238.707031 211.039062 C 239.585938 212.683594 240.355469 214.390625 241.175781 216.0625 C 242.054688 217.703125 242.523438 219.53125 243.21875 221.261719 C 243.914062 222.992188 244.371094 224.800781 244.824219 226.609375 C 245.351562 228.398438 245.742188 230.21875 245.988281 232.066406 C 246.210938 233.914062 246.679688 235.738281 246.707031 237.605469 L 246.980469 243.191406 Z M 246.703125 248.785156 " fill-opacity="1" fill-rule="nonzero"/></g></svg>