<svg xmlns="http://www.w3.org/2000/svg" xmlns:xlink="http://www.w3.org/1999/xlink" width="480" zoomAndPan="magnify" viewBox="0 0 360 503.999982" height="672" preserveAspectRatio="xMidYMid meet" version="1.0"><defs><clipPath id="ad78df644b"><path d="M 108 185.171875 L 252 185.171875 L 252 280 L 108 280 Z M 108 185.171875 " clip-rule="nonzero"/></clipPath><clipPath id="63fceb2df6"><path d="M 173 270 L 187 270 L 187 292.421875 L 173 292.421875 Z M 173 270 " clip-rule="nonzero"/></clipPath></defs><path fill="hsl(27, 34%, 59%)" d="M 151.191406 216.464844 C 150.742188 216.136719 150.519531 215.679688 150.519531 215.082031 L 150.519531 210.992188 C 150.519531 210.394531 150.742188 209.9375 151.191406 209.609375 C 151.636719 209.28125 152.289062 209.121094 153.140625 209.121094 C 153.988281 209.121094 154.640625 209.28125 155.085938 209.609375 C 155.53125 209.9375 155.757812 210.394531 155.757812 210.992188 L 155.757812 211.796875 L 154.078125 211.796875 L 154.078125 210.914062 C 154.078125 210.445312 153.78125 210.207031 153.1875 210.207031 C 152.59375 210.207031 152.296875 210.445312 152.296875 210.914062 L 152.296875 215.167969 C 152.296875 215.632812 152.59375 215.867188 153.1875 215.867188 C 153.78125 215.867188 154.078125 215.632812 154.078125 215.167969 L 154.078125 214.003906 L 155.757812 214.003906 L 155.757812 215.082031 C 155.757812 215.679688 155.53125 216.136719 155.085938 216.464844 C 154.640625 216.792969 153.988281 216.953125 153.140625 216.953125 C 152.289062 216.953125 151.636719 216.792969 151.191406 216.464844 " fill-opacity="1" fill-rule="nonzero"/><path fill="hsl(27, 34%, 59%)" d="M 153.140625 209.226562 C 152.316406 209.226562 151.679688 209.386719 151.253906 209.695312 C 150.832031 210.003906 150.628906 210.425781 150.628906 210.992188 L 150.628906 215.082031 C 150.628906 215.644531 150.832031 216.070312 151.253906 216.375 C 151.679688 216.6875 152.316406 216.84375 153.140625 216.84375 C 153.960938 216.84375 154.597656 216.6875 155.023438 216.375 C 155.445312 216.070312 155.648438 215.644531 155.648438 215.082031 L 155.648438 214.113281 L 154.183594 214.113281 L 154.183594 215.167969 C 154.183594 215.539062 154.011719 215.976562 153.1875 215.976562 C 152.363281 215.976562 152.1875 215.539062 152.1875 215.167969 L 152.1875 210.914062 C 152.1875 210.542969 152.363281 210.097656 153.1875 210.097656 C 154.011719 210.097656 154.183594 210.542969 154.183594 210.914062 L 154.183594 211.6875 L 155.648438 211.6875 L 155.648438 210.992188 C 155.648438 210.425781 155.445312 210.003906 155.023438 209.695312 C 154.597656 209.386719 153.960938 209.226562 153.140625 209.226562 Z M 153.140625 217.0625 C 152.269531 217.0625 151.589844 216.890625 151.128906 216.550781 C 150.652344 216.207031 150.410156 215.710938 150.410156 215.082031 L 150.410156 210.992188 C 150.410156 210.363281 150.652344 209.867188 151.128906 209.519531 C 151.589844 209.183594 152.269531 209.011719 153.140625 209.011719 C 154.007812 209.011719 154.6875 209.183594 155.148438 209.519531 C 155.625 209.867188 155.867188 210.363281 155.867188 210.992188 L 155.867188 211.90625 L 153.96875 211.90625 L 153.96875 210.914062 C 153.96875 210.660156 153.886719 210.316406 153.1875 210.316406 C 152.488281 210.316406 152.40625 210.660156 152.40625 210.914062 L 152.40625 215.167969 C 152.40625 215.421875 152.488281 215.757812 153.1875 215.757812 C 153.886719 215.757812 153.96875 215.421875 153.96875 215.167969 L 153.96875 213.898438 L 155.867188 213.898438 L 155.867188 215.082031 C 155.867188 215.710938 155.625 216.207031 155.148438 216.550781 C 154.6875 216.890625 154.007812 217.0625 153.140625 217.0625 " fill-opacity="1" fill-rule="nonzero"/><path fill="hsl(27, 34%, 59%)" d="M 156.824219 209.226562 L 161.671875 209.226562 L 161.671875 210.316406 L 158.601562 210.316406 L 158.601562 212.328125 L 161.042969 212.328125 L 161.042969 213.417969 L 158.601562 213.417969 L 158.601562 215.757812 L 161.671875 215.757812 L 161.671875 216.84375 L 156.824219 216.84375 L 156.824219 209.226562 " fill-opacity="1" fill-rule="nonzero"/><path fill="hsl(27, 34%, 59%)" d="M 156.933594 216.738281 L 161.5625 216.738281 L 161.5625 215.867188 L 158.492188 215.867188 L 158.492188 213.308594 L 160.933594 213.308594 L 160.933594 212.4375 L 158.492188 212.4375 L 158.492188 210.207031 L 161.5625 210.207031 L 161.5625 209.335938 L 156.933594 209.335938 Z M 161.78125 216.953125 L 156.714844 216.953125 L 156.714844 209.121094 L 161.78125 209.121094 L 161.78125 210.425781 L 158.710938 210.425781 L 158.710938 212.21875 L 161.152344 212.21875 L 161.152344 213.527344 L 158.710938 213.527344 L 158.710938 215.648438 L 161.78125 215.648438 L 161.78125 216.953125 " fill-opacity="1" fill-rule="nonzero"/><path fill="hsl(27, 34%, 59%)" d="M 165.113281 212.492188 C 165.46875 212.492188 165.738281 212.429688 165.914062 212.308594 C 166.09375 212.183594 166.179688 211.976562 166.179688 211.6875 L 166.179688 211.101562 C 166.179688 210.824219 166.109375 210.625 165.964844 210.5 C 165.816406 210.378906 165.589844 210.316406 165.277344 210.316406 L 164.46875 210.316406 L 164.46875 212.492188 Z M 162.691406 209.226562 L 165.324219 209.226562 C 166.242188 209.226562 166.910156 209.371094 167.328125 209.65625 C 167.75 209.945312 167.960938 210.386719 167.960938 210.980469 L 167.960938 211.449219 C 167.960938 212.238281 167.570312 212.738281 166.796875 212.949219 L 166.796875 212.972656 C 167.226562 213.058594 167.53125 213.234375 167.707031 213.503906 C 167.886719 213.773438 167.976562 214.132812 167.976562 214.582031 L 167.976562 215.921875 C 167.976562 216.136719 167.984375 216.316406 168.007812 216.449219 C 168.03125 216.582031 168.082031 216.714844 168.167969 216.84375 L 166.359375 216.84375 C 166.292969 216.722656 166.25 216.605469 166.230469 216.496094 C 166.207031 216.386719 166.199219 216.191406 166.199219 215.910156 L 166.199219 214.515625 C 166.199219 214.167969 166.113281 213.925781 165.945312 213.789062 C 165.78125 213.648438 165.492188 213.582031 165.082031 213.582031 L 164.46875 213.582031 L 164.46875 216.84375 L 162.691406 216.84375 L 162.691406 209.226562 " fill-opacity="1" fill-rule="nonzero"/><path fill="hsl(27, 34%, 59%)" d="M 164.578125 212.382812 L 165.113281 212.382812 C 165.445312 212.382812 165.695312 212.328125 165.851562 212.21875 C 166 212.117188 166.074219 211.941406 166.074219 211.6875 L 166.074219 211.101562 C 166.074219 210.859375 166.011719 210.6875 165.894531 210.585938 C 165.769531 210.480469 165.5625 210.425781 165.277344 210.425781 L 164.578125 210.425781 Z M 165.113281 212.601562 L 164.359375 212.601562 L 164.359375 210.207031 L 165.277344 210.207031 C 165.613281 210.207031 165.867188 210.277344 166.035156 210.417969 C 166.203125 210.5625 166.289062 210.792969 166.289062 211.101562 L 166.289062 211.6875 C 166.289062 212.015625 166.183594 212.253906 165.976562 212.398438 C 165.777344 212.535156 165.496094 212.601562 165.113281 212.601562 Z M 166.425781 216.738281 L 167.984375 216.738281 C 167.941406 216.648438 167.914062 216.554688 167.902344 216.464844 C 167.878906 216.324219 167.867188 216.148438 167.867188 215.921875 L 167.867188 214.582031 C 167.867188 214.15625 167.78125 213.816406 167.617188 213.566406 C 167.457031 213.324219 167.171875 213.160156 166.773438 213.078125 L 166.6875 213.0625 L 166.6875 212.867188 L 166.765625 212.84375 C 167.496094 212.648438 167.851562 212.191406 167.851562 211.449219 L 167.851562 210.980469 C 167.851562 210.417969 167.660156 210.015625 167.269531 209.75 C 166.867188 209.476562 166.214844 209.335938 165.324219 209.335938 L 162.800781 209.335938 L 162.800781 216.738281 L 164.359375 216.738281 L 164.359375 213.472656 L 165.082031 213.472656 C 165.523438 213.472656 165.828125 213.546875 166.015625 213.703125 C 166.207031 213.863281 166.304688 214.136719 166.304688 214.515625 L 166.304688 215.910156 C 166.304688 216.1875 166.316406 216.375 166.335938 216.476562 C 166.351562 216.558594 166.382812 216.644531 166.425781 216.738281 Z M 168.371094 216.953125 L 166.292969 216.953125 L 166.261719 216.894531 C 166.195312 216.765625 166.148438 216.636719 166.125 216.519531 C 166.101562 216.402344 166.089844 216.203125 166.089844 215.910156 L 166.089844 214.515625 C 166.089844 214.203125 166.019531 213.988281 165.878906 213.871094 C 165.730469 213.75 165.464844 213.691406 165.082031 213.691406 L 164.578125 213.691406 L 164.578125 216.953125 L 162.582031 216.953125 L 162.582031 209.121094 L 165.324219 209.121094 C 166.257812 209.121094 166.953125 209.269531 167.390625 209.566406 C 167.839844 209.875 168.066406 210.351562 168.066406 210.980469 L 168.066406 211.449219 C 168.066406 212.179688 167.753906 212.683594 167.128906 212.949219 C 167.429688 213.058594 167.652344 213.222656 167.800781 213.445312 C 167.988281 213.730469 168.085938 214.113281 168.085938 214.582031 L 168.085938 215.921875 C 168.085938 216.132812 168.09375 216.304688 168.117188 216.429688 C 168.132812 216.550781 168.183594 216.667969 168.261719 216.785156 L 168.371094 216.953125 " fill-opacity="1" fill-rule="nonzero"/><path fill="hsl(27, 34%, 59%)" d="M 170.5625 210.316406 L 168.703125 210.316406 L 168.703125 209.226562 L 174.199219 209.226562 L 174.199219 210.316406 L 172.339844 210.316406 L 172.339844 216.84375 L 170.5625 216.84375 L 170.5625 210.316406 " fill-opacity="1" fill-rule="nonzero"/><path fill="hsl(27, 34%, 59%)" d="M 170.671875 216.738281 L 172.230469 216.738281 L 172.230469 210.207031 L 174.089844 210.207031 L 174.089844 209.335938 L 168.8125 209.335938 L 168.8125 210.207031 L 170.671875 210.207031 Z M 172.449219 216.953125 L 170.453125 216.953125 L 170.453125 210.425781 L 168.59375 210.425781 L 168.59375 209.121094 L 174.308594 209.121094 L 174.308594 210.425781 L 172.449219 210.425781 L 172.449219 216.953125 " fill-opacity="1" fill-rule="nonzero"/><path fill="hsl(27, 34%, 59%)" d="M 175.054688 209.226562 L 176.832031 209.226562 L 176.832031 216.84375 L 175.054688 216.84375 L 175.054688 209.226562 " fill-opacity="1" fill-rule="nonzero"/><path fill="hsl(27, 34%, 59%)" d="M 175.164062 216.738281 L 176.722656 216.738281 L 176.722656 209.335938 L 175.164062 209.335938 Z M 176.941406 216.953125 L 174.945312 216.953125 L 174.945312 209.121094 L 176.941406 209.121094 L 176.941406 216.953125 " fill-opacity="1" fill-rule="nonzero"/><path fill="hsl(27, 34%, 59%)" d="M 178.15625 209.226562 L 182.859375 209.226562 L 182.859375 210.316406 L 179.933594 210.316406 L 179.933594 212.4375 L 182.230469 212.4375 L 182.230469 213.527344 L 179.933594 213.527344 L 179.933594 216.84375 L 178.15625 216.84375 L 178.15625 209.226562 " fill-opacity="1" fill-rule="nonzero"/><path fill="hsl(27, 34%, 59%)" d="M 178.265625 216.738281 L 179.828125 216.738281 L 179.828125 213.417969 L 182.121094 213.417969 L 182.121094 212.546875 L 179.828125 212.546875 L 179.828125 210.207031 L 182.75 210.207031 L 182.75 209.335938 L 178.265625 209.335938 Z M 180.042969 216.953125 L 178.046875 216.953125 L 178.046875 209.121094 L 182.96875 209.121094 L 182.96875 210.425781 L 180.042969 210.425781 L 180.042969 212.328125 L 182.339844 212.328125 L 182.339844 213.636719 L 180.042969 213.636719 L 180.042969 216.953125 " fill-opacity="1" fill-rule="nonzero"/><path fill="hsl(27, 34%, 59%)" d="M 183.71875 209.226562 L 185.496094 209.226562 L 185.496094 216.84375 L 183.71875 216.84375 L 183.71875 209.226562 " fill-opacity="1" fill-rule="nonzero"/><path fill="hsl(27, 34%, 59%)" d="M 183.828125 216.738281 L 185.386719 216.738281 L 185.386719 209.335938 L 183.828125 209.335938 Z M 185.605469 216.953125 L 183.609375 216.953125 L 183.609375 209.121094 L 185.605469 209.121094 L 185.605469 216.953125 " fill-opacity="1" fill-rule="nonzero"/><path fill="hsl(27, 34%, 59%)" d="M 187.378906 216.464844 C 186.929688 216.136719 186.707031 215.679688 186.707031 215.082031 L 186.707031 210.992188 C 186.707031 210.394531 186.929688 209.9375 187.378906 209.609375 C 187.824219 209.28125 188.472656 209.121094 189.324219 209.121094 C 190.175781 209.121094 190.824219 209.28125 191.273438 209.609375 C 191.71875 209.9375 191.945312 210.394531 191.945312 210.992188 L 191.945312 211.796875 L 190.261719 211.796875 L 190.261719 210.914062 C 190.261719 210.445312 189.964844 210.207031 189.375 210.207031 C 188.78125 210.207031 188.484375 210.445312 188.484375 210.914062 L 188.484375 215.167969 C 188.484375 215.632812 188.78125 215.867188 189.375 215.867188 C 189.964844 215.867188 190.261719 215.632812 190.261719 215.167969 L 190.261719 214.003906 L 191.945312 214.003906 L 191.945312 215.082031 C 191.945312 215.679688 191.71875 216.136719 191.273438 216.464844 C 190.824219 216.792969 190.175781 216.953125 189.324219 216.953125 C 188.472656 216.953125 187.824219 216.792969 187.378906 216.464844 " fill-opacity="1" fill-rule="nonzero"/><path fill="hsl(27, 34%, 59%)" d="M 189.324219 209.226562 C 188.5 209.226562 187.867188 209.386719 187.441406 209.695312 C 187.019531 210.003906 186.816406 210.425781 186.816406 210.992188 L 186.816406 215.082031 C 186.816406 215.644531 187.019531 216.070312 187.441406 216.375 C 187.867188 216.6875 188.5 216.84375 189.324219 216.84375 C 190.148438 216.84375 190.78125 216.6875 191.207031 216.375 C 191.628906 216.070312 191.835938 215.644531 191.835938 215.082031 L 191.835938 214.113281 L 190.371094 214.113281 L 190.371094 215.167969 C 190.371094 215.539062 190.199219 215.976562 189.375 215.976562 C 188.550781 215.976562 188.375 215.539062 188.375 215.167969 L 188.375 210.914062 C 188.375 210.542969 188.550781 210.097656 189.375 210.097656 C 190.199219 210.097656 190.371094 210.542969 190.371094 210.914062 L 190.371094 211.6875 L 191.835938 211.6875 L 191.835938 210.992188 C 191.835938 210.425781 191.628906 210.003906 191.207031 209.695312 C 190.78125 209.386719 190.148438 209.226562 189.324219 209.226562 Z M 189.324219 217.0625 C 188.453125 217.0625 187.777344 216.890625 187.3125 216.550781 C 186.839844 216.207031 186.597656 215.710938 186.597656 215.082031 L 186.597656 210.992188 C 186.597656 210.363281 186.839844 209.867188 187.3125 209.519531 C 187.777344 209.183594 188.453125 209.011719 189.324219 209.011719 C 190.195312 209.011719 190.871094 209.183594 191.335938 209.519531 C 191.8125 209.867188 192.054688 210.363281 192.054688 210.992188 L 192.054688 211.90625 L 190.15625 211.90625 L 190.15625 210.914062 C 190.15625 210.660156 190.074219 210.316406 189.375 210.316406 C 188.675781 210.316406 188.59375 210.660156 188.59375 210.914062 L 188.59375 215.167969 C 188.59375 215.421875 188.675781 215.757812 189.375 215.757812 C 190.074219 215.757812 190.15625 215.421875 190.15625 215.167969 L 190.15625 213.898438 L 192.054688 213.898438 L 192.054688 215.082031 C 192.054688 215.710938 191.8125 216.207031 191.335938 216.550781 C 190.871094 216.890625 190.195312 217.0625 189.324219 217.0625 " fill-opacity="1" fill-rule="nonzero"/><path fill="hsl(27, 34%, 59%)" d="M 196.324219 214.320312 L 195.53125 210.554688 L 195.5 210.554688 L 194.722656 214.320312 Z M 194.382812 209.226562 L 196.792969 209.226562 L 198.636719 216.84375 L 196.855469 216.84375 L 196.535156 215.332031 L 196.535156 215.355469 L 194.515625 215.355469 L 194.191406 216.84375 L 192.542969 216.84375 L 194.382812 209.226562 " fill-opacity="1" fill-rule="nonzero"/><path fill="hsl(27, 34%, 59%)" d="M 194.855469 214.210938 L 196.191406 214.210938 L 195.515625 211.011719 Z M 196.945312 216.738281 L 198.496094 216.738281 L 196.707031 209.335938 L 194.46875 209.335938 L 192.679688 216.738281 L 194.101562 216.738281 L 194.425781 215.246094 L 196.425781 215.246094 L 196.425781 214.429688 L 194.589844 214.429688 L 195.410156 210.445312 L 195.621094 210.445312 L 196.457031 214.429688 L 196.453125 214.429688 Z M 198.773438 216.953125 L 196.769531 216.953125 L 196.449219 215.464844 L 194.601562 215.464844 L 194.277344 216.953125 L 192.402344 216.953125 L 194.296875 209.121094 L 196.878906 209.121094 L 198.773438 216.953125 " fill-opacity="1" fill-rule="nonzero"/><path fill="hsl(27, 34%, 59%)" d="M 200.136719 210.316406 L 198.277344 210.316406 L 198.277344 209.226562 L 203.773438 209.226562 L 203.773438 210.316406 L 201.914062 210.316406 L 201.914062 216.84375 L 200.136719 216.84375 L 200.136719 210.316406 " fill-opacity="1" fill-rule="nonzero"/><path fill="hsl(27, 34%, 59%)" d="M 200.246094 216.738281 L 201.808594 216.738281 L 201.808594 210.207031 L 203.664062 210.207031 L 203.664062 209.335938 L 198.386719 209.335938 L 198.386719 210.207031 L 200.246094 210.207031 Z M 202.023438 216.953125 L 200.027344 216.953125 L 200.027344 210.425781 L 198.171875 210.425781 L 198.171875 209.121094 L 203.882812 209.121094 L 203.882812 210.425781 L 202.023438 210.425781 L 202.023438 216.953125 " fill-opacity="1" fill-rule="nonzero"/><path fill="hsl(27, 34%, 59%)" d="M 204.632812 209.226562 L 209.480469 209.226562 L 209.480469 210.316406 L 206.410156 210.316406 L 206.410156 212.328125 L 208.851562 212.328125 L 208.851562 213.417969 L 206.410156 213.417969 L 206.410156 215.757812 L 209.480469 215.757812 L 209.480469 216.84375 L 204.632812 216.84375 L 204.632812 209.226562 " fill-opacity="1" fill-rule="nonzero"/><path fill="hsl(27, 34%, 59%)" d="M 204.738281 216.738281 L 209.371094 216.738281 L 209.371094 215.867188 L 206.300781 215.867188 L 206.300781 213.308594 L 208.742188 213.308594 L 208.742188 212.4375 L 206.300781 212.4375 L 206.300781 210.207031 L 209.371094 210.207031 L 209.371094 209.335938 L 204.738281 209.335938 Z M 209.589844 216.953125 L 204.523438 216.953125 L 204.523438 209.121094 L 209.589844 209.121094 L 209.589844 210.425781 L 206.515625 210.425781 L 206.515625 212.21875 L 208.957031 212.21875 L 208.957031 213.527344 L 206.515625 213.527344 L 206.515625 215.648438 L 209.589844 215.648438 L 209.589844 216.953125 " fill-opacity="1" fill-rule="nonzero"/><g clip-path="url(#ad78df644b)"><path fill="hsl(27, 34%, 59%)" d="M 180 257.125 C 177.355469 257.125 175.207031 259.28125 175.207031 261.925781 C 175.207031 264.574219 177.355469 266.730469 180 266.730469 C 182.644531 266.730469 184.796875 264.574219 184.796875 261.925781 C 184.796875 259.28125 182.644531 257.125 180 257.125 Z M 180 269.332031 C 175.921875 269.332031 172.605469 266.011719 172.605469 261.925781 C 172.605469 257.84375 175.921875 254.519531 180 254.519531 C 184.078125 254.519531 187.398438 257.84375 187.398438 261.925781 C 187.398438 266.011719 184.078125 269.332031 180 269.332031 Z M 130.480469 269.523438 C 130.445312 269.523438 130.414062 269.523438 130.382812 269.523438 C 129.664062 269.46875 129.128906 268.84375 129.179688 268.128906 C 129.199219 267.886719 129.207031 267.636719 129.207031 267.386719 C 129.207031 261.621094 124.523438 256.933594 118.769531 256.933594 C 118.050781 256.933594 117.46875 256.351562 117.46875 255.632812 C 117.46875 254.914062 118.050781 254.332031 118.769531 254.332031 C 125.960938 254.332031 131.808594 260.1875 131.808594 267.386719 C 131.808594 267.699219 131.796875 268.011719 131.773438 268.316406 C 131.726562 269.003906 131.152344 269.523438 130.480469 269.523438 Z M 186.78125 276.402344 L 249.398438 276.402344 L 249.398438 187.789062 L 110.601562 187.789062 L 110.601562 276.402344 L 173.21875 276.402344 L 173.21875 272.671875 L 170.566406 272.671875 C 169.851562 272.671875 169.265625 272.089844 169.265625 271.371094 L 169.265625 266.378906 L 165.742188 262.847656 C 165.234375 262.339844 165.234375 261.515625 165.742188 261.007812 L 169.265625 257.476562 L 169.265625 252.484375 C 169.265625 251.761719 169.851562 251.179688 170.566406 251.179688 L 175.554688 251.179688 L 179.082031 247.648438 C 179.324219 247.40625 179.65625 247.269531 180 247.269531 C 180.34375 247.269531 180.675781 247.40625 180.921875 247.648438 L 184.445312 251.179688 L 189.433594 251.179688 C 190.148438 251.179688 190.734375 251.761719 190.734375 252.484375 L 190.734375 257.476562 L 194.257812 261.007812 C 194.765625 261.515625 194.765625 262.339844 194.257812 262.847656 L 190.734375 266.378906 L 190.734375 271.371094 C 190.734375 272.089844 190.148438 272.671875 189.433594 272.671875 L 186.78125 272.671875 Z M 250.699219 279.007812 L 185.480469 279.007812 C 184.761719 279.007812 184.179688 278.421875 184.179688 277.703125 L 184.179688 271.371094 C 184.179688 270.652344 184.761719 270.066406 185.480469 270.066406 L 188.132812 270.066406 L 188.132812 265.839844 C 188.132812 265.492188 188.269531 265.160156 188.511719 264.917969 L 191.5 261.925781 L 188.511719 258.933594 C 188.269531 258.691406 188.132812 258.359375 188.132812 258.015625 L 188.132812 253.785156 L 183.90625 253.785156 C 183.5625 253.785156 183.230469 253.648438 182.988281 253.402344 L 180 250.414062 L 177.015625 253.402344 C 176.769531 253.648438 176.4375 253.785156 176.09375 253.785156 L 171.867188 253.785156 L 171.867188 258.015625 C 171.867188 258.359375 171.730469 258.691406 171.488281 258.933594 L 168.5 261.925781 L 171.488281 264.917969 C 171.730469 265.160156 171.867188 265.492188 171.867188 265.839844 L 171.867188 270.066406 L 174.519531 270.066406 C 175.238281 270.066406 175.820312 270.652344 175.820312 271.371094 L 175.820312 277.703125 C 175.820312 278.421875 175.238281 279.007812 174.519531 279.007812 L 109.300781 279.007812 C 108.582031 279.007812 108 278.421875 108 277.703125 L 108 186.484375 C 108 185.765625 108.582031 185.183594 109.300781 185.183594 L 250.699219 185.183594 C 251.417969 185.183594 252 185.765625 252 186.484375 L 252 277.703125 C 252 278.421875 251.417969 279.007812 250.699219 279.007812 " fill-opacity="1" fill-rule="nonzero"/></g><path fill="hsl(27, 34%, 59%)" d="M 241.230469 256.933594 C 240.511719 256.933594 239.929688 256.351562 239.929688 255.632812 L 239.929688 207.722656 C 239.929688 207 240.511719 206.417969 241.230469 206.417969 C 241.949219 206.417969 242.53125 207 242.53125 207.722656 L 242.53125 255.632812 C 242.53125 256.351562 241.949219 256.933594 241.230469 256.933594 " fill-opacity="1" fill-rule="nonzero"/><path fill="hsl(27, 34%, 59%)" d="M 170.566406 269.523438 L 130.476562 269.523438 C 129.757812 269.523438 129.175781 268.941406 129.175781 268.222656 C 129.175781 267.503906 129.757812 266.921875 130.476562 266.921875 L 170.566406 266.921875 C 171.285156 266.921875 171.867188 267.503906 171.867188 268.222656 C 171.867188 268.941406 171.285156 269.523438 170.566406 269.523438 " fill-opacity="1" fill-rule="nonzero"/><path fill="hsl(27, 34%, 59%)" d="M 229.523438 269.523438 L 189.433594 269.523438 C 188.714844 269.523438 188.132812 268.941406 188.132812 268.222656 C 188.132812 267.503906 188.714844 266.921875 189.433594 266.921875 L 229.523438 266.921875 C 230.242188 266.921875 230.824219 267.503906 230.824219 268.222656 C 230.824219 268.941406 230.242188 269.523438 229.523438 269.523438 " fill-opacity="1" fill-rule="nonzero"/><path fill="hsl(27, 34%, 59%)" d="M 118.769531 256.933594 C 118.050781 256.933594 117.46875 256.351562 117.46875 255.632812 L 117.46875 207.722656 C 117.46875 207 118.050781 206.417969 118.769531 206.417969 C 119.488281 206.417969 120.070312 207 120.070312 207.722656 L 120.070312 255.632812 C 120.070312 256.351562 119.488281 256.933594 118.769531 256.933594 " fill-opacity="1" fill-rule="nonzero"/><path fill="hsl(27, 34%, 59%)" d="M 229.492188 197.269531 L 130.507812 197.269531 C 129.789062 197.269531 129.207031 196.683594 129.207031 195.96875 C 129.207031 195.246094 129.789062 194.664062 130.507812 194.664062 L 229.492188 194.664062 C 230.210938 194.664062 230.792969 195.246094 230.792969 195.96875 C 230.792969 196.683594 230.210938 197.269531 229.492188 197.269531 " fill-opacity="1" fill-rule="nonzero"/><path fill="hsl(27, 34%, 59%)" d="M 225.265625 233.398438 L 134.734375 233.398438 C 134.015625 233.398438 133.433594 232.816406 133.433594 232.09375 C 133.433594 231.375 134.015625 230.792969 134.734375 230.792969 L 225.265625 230.792969 C 225.984375 230.792969 226.566406 231.375 226.566406 232.09375 C 226.566406 232.816406 225.984375 233.398438 225.265625 233.398438 " fill-opacity="1" fill-rule="nonzero"/><path fill="hsl(27, 34%, 59%)" d="M 212.839844 244.335938 L 147.160156 244.335938 C 146.441406 244.335938 145.859375 243.753906 145.859375 243.035156 C 145.859375 242.3125 146.441406 241.730469 147.160156 241.730469 L 212.839844 241.730469 C 213.558594 241.730469 214.140625 242.3125 214.140625 243.035156 C 214.140625 243.753906 213.558594 244.335938 212.839844 244.335938 " fill-opacity="1" fill-rule="nonzero"/><path fill="hsl(27, 34%, 59%)" d="M 241.230469 209.023438 C 234.039062 209.023438 228.191406 203.167969 228.191406 195.96875 C 228.191406 195.246094 228.773438 194.664062 229.492188 194.664062 C 230.210938 194.664062 230.792969 195.246094 230.792969 195.96875 C 230.792969 201.730469 235.476562 206.417969 241.230469 206.417969 C 241.949219 206.417969 242.53125 207 242.53125 207.722656 C 242.53125 208.441406 241.949219 209.023438 241.230469 209.023438 " fill-opacity="1" fill-rule="nonzero"/><path fill="hsl(27, 34%, 59%)" d="M 229.519531 269.523438 C 228.84375 269.523438 228.273438 269.003906 228.226562 268.316406 C 228.203125 268.011719 228.191406 267.699219 228.191406 267.386719 C 228.191406 260.1875 234.039062 254.332031 241.230469 254.332031 C 241.949219 254.332031 242.53125 254.914062 242.53125 255.632812 C 242.53125 256.351562 241.949219 256.933594 241.230469 256.933594 C 235.476562 256.933594 230.792969 261.621094 230.792969 267.386719 C 230.792969 267.632812 230.800781 267.882812 230.820312 268.128906 C 230.871094 268.84375 230.332031 269.46875 229.617188 269.523438 C 229.585938 269.523438 229.554688 269.523438 229.519531 269.523438 " fill-opacity="1" fill-rule="nonzero"/><path fill="hsl(27, 34%, 59%)" d="M 118.769531 209.023438 C 118.050781 209.023438 117.46875 208.441406 117.46875 207.722656 C 117.46875 207 118.050781 206.417969 118.769531 206.417969 C 124.523438 206.417969 129.207031 201.730469 129.207031 195.96875 C 129.207031 195.246094 129.789062 194.664062 130.507812 194.664062 C 131.226562 194.664062 131.808594 195.246094 131.808594 195.96875 C 131.808594 203.167969 125.960938 209.023438 118.769531 209.023438 " fill-opacity="1" fill-rule="nonzero"/><path fill="hsl(27, 34%, 59%)" d="M 142.371094 204.941406 C 138.867188 204.941406 136.015625 207.796875 136.015625 211.304688 L 136.015625 214.769531 C 136.015625 218.277344 138.867188 221.132812 142.371094 221.132812 L 217.628906 221.132812 C 221.132812 221.132812 223.984375 218.277344 223.984375 214.769531 L 223.984375 211.304688 C 223.984375 207.796875 221.132812 204.941406 217.628906 204.941406 Z M 217.628906 223.738281 L 142.371094 223.738281 C 137.433594 223.738281 133.417969 219.714844 133.417969 214.769531 L 133.417969 211.304688 C 133.417969 206.359375 137.433594 202.335938 142.371094 202.335938 L 217.628906 202.335938 C 222.566406 202.335938 226.585938 206.359375 226.585938 211.304688 L 226.585938 214.769531 C 226.585938 219.714844 222.566406 223.738281 217.628906 223.738281 " fill-opacity="1" fill-rule="nonzero"/><path fill="hsl(27, 34%, 59%)" d="M 180 257.125 C 177.355469 257.125 175.207031 259.28125 175.207031 261.925781 C 175.207031 264.574219 177.355469 266.730469 180 266.730469 C 182.644531 266.730469 184.796875 264.574219 184.796875 261.925781 C 184.796875 259.28125 182.644531 257.125 180 257.125 Z M 180 269.332031 C 175.921875 269.332031 172.605469 266.011719 172.605469 261.925781 C 172.605469 257.84375 175.921875 254.519531 180 254.519531 C 184.078125 254.519531 187.398438 257.84375 187.398438 261.925781 C 187.398438 266.011719 184.078125 269.332031 180 269.332031 Z M 171.867188 270.066406 L 176.09375 270.066406 C 176.4375 270.066406 176.769531 270.207031 177.011719 270.449219 L 180 273.441406 L 182.988281 270.449219 C 183.230469 270.207031 183.5625 270.066406 183.90625 270.066406 L 188.132812 270.066406 L 188.132812 265.839844 C 188.132812 265.492188 188.269531 265.160156 188.511719 264.917969 L 191.5 261.925781 L 188.511719 258.933594 C 188.269531 258.691406 188.132812 258.359375 188.132812 258.015625 L 188.132812 253.785156 L 183.90625 253.785156 C 183.5625 253.785156 183.230469 253.648438 182.988281 253.402344 L 180 250.414062 L 177.015625 253.402344 C 176.769531 253.648438 176.4375 253.785156 176.09375 253.785156 L 171.867188 253.785156 L 171.867188 258.015625 C 171.867188 258.359375 171.730469 258.691406 171.488281 258.933594 L 168.5 261.925781 L 171.488281 264.917969 C 171.730469 265.160156 171.867188 265.492188 171.867188 265.839844 Z M 180 276.585938 C 179.667969 276.585938 179.335938 276.457031 179.082031 276.203125 L 175.554688 272.671875 L 170.566406 272.671875 C 169.851562 272.671875 169.265625 272.089844 169.265625 271.371094 L 169.265625 266.378906 L 165.742188 262.847656 C 165.234375 262.339844 165.234375 261.515625 165.742188 261.007812 L 169.265625 257.476562 L 169.265625 252.484375 C 169.265625 251.761719 169.851562 251.179688 170.566406 251.179688 L 175.554688 251.179688 L 179.082031 247.648438 C 179.324219 247.40625 179.65625 247.269531 180 247.269531 C 180.34375 247.269531 180.675781 247.40625 180.921875 247.648438 L 184.445312 251.179688 L 189.433594 251.179688 C 190.148438 251.179688 190.734375 251.761719 190.734375 252.484375 L 190.734375 257.476562 L 194.257812 261.007812 C 194.765625 261.515625 194.765625 262.339844 194.257812 262.847656 L 190.734375 266.378906 L 190.734375 271.371094 C 190.734375 272.089844 190.148438 272.671875 189.433594 272.671875 L 184.445312 272.671875 L 180.921875 276.203125 C 180.664062 276.457031 180.332031 276.585938 180 276.585938 " fill-opacity="1" fill-rule="nonzero"/><path fill="hsl(27, 34%, 59%)" d="M 180 257.125 C 177.355469 257.125 175.207031 259.28125 175.207031 261.925781 C 175.207031 264.574219 177.355469 266.730469 180 266.730469 C 182.644531 266.730469 184.796875 264.574219 184.796875 261.925781 C 184.796875 259.28125 182.644531 257.125 180 257.125 Z M 180 269.332031 C 175.921875 269.332031 172.605469 266.011719 172.605469 261.925781 C 172.605469 257.84375 175.921875 254.519531 180 254.519531 C 184.078125 254.519531 187.398438 257.84375 187.398438 261.925781 C 187.398438 266.011719 184.078125 269.332031 180 269.332031 " fill-opacity="1" fill-rule="nonzero"/><path fill="hsl(27, 34%, 59%)" d="M 180 257.125 C 177.355469 257.125 175.207031 259.28125 175.207031 261.925781 C 175.207031 264.574219 177.355469 266.730469 180 266.730469 C 182.644531 266.730469 184.796875 264.574219 184.796875 261.925781 C 184.796875 259.28125 182.644531 257.125 180 257.125 Z M 180 269.332031 C 175.921875 269.332031 172.605469 266.011719 172.605469 261.925781 C 172.605469 257.84375 175.921875 254.519531 180 254.519531 C 184.078125 254.519531 187.398438 257.84375 187.398438 261.925781 C 187.398438 266.011719 184.078125 269.332031 180 269.332031 " fill-opacity="1" fill-rule="nonzero"/><g clip-path="url(#63fceb2df6)"><path fill="hsl(27, 34%, 59%)" d="M 180 285.09375 C 180.296875 285.09375 180.597656 285.195312 180.839844 285.398438 L 184.179688 288.222656 L 184.179688 272.9375 L 180.921875 276.203125 C 180.410156 276.710938 179.589844 276.710938 179.082031 276.203125 L 175.820312 272.9375 L 175.820312 288.222656 L 179.160156 285.398438 C 179.402344 285.195312 179.703125 285.09375 180 285.09375 Z M 174.519531 292.324219 C 174.332031 292.324219 174.144531 292.285156 173.972656 292.203125 C 173.511719 291.992188 173.21875 291.53125 173.21875 291.023438 L 173.21875 271.371094 C 173.21875 270.652344 173.800781 270.066406 174.519531 270.066406 L 176.09375 270.066406 C 176.4375 270.066406 176.769531 270.207031 177.011719 270.449219 L 180 273.441406 L 182.988281 270.449219 C 183.230469 270.207031 183.5625 270.066406 183.90625 270.066406 L 185.480469 270.066406 C 186.199219 270.066406 186.78125 270.652344 186.78125 271.371094 L 186.78125 291.023438 C 186.78125 291.53125 186.488281 291.992188 186.03125 292.203125 C 185.570312 292.417969 185.03125 292.34375 184.644531 292.019531 L 180 288.101562 L 175.359375 292.019531 C 175.117188 292.21875 174.820312 292.324219 174.519531 292.324219 " fill-opacity="1" fill-rule="nonzero"/></g></svg>