<svg xmlns="http://www.w3.org/2000/svg" xmlns:xlink="http://www.w3.org/1999/xlink" width="480" zoomAndPan="magnify" viewBox="0 0 360 503.999982" height="672" preserveAspectRatio="xMidYMid meet" version="1.0"><defs><clipPath id="438aee6815"><path d="M 85 166 L 298.675781 166 L 298.675781 280 L 85 280 Z M 85 166 " clip-rule="nonzero"/></clipPath><clipPath id="0044ebced6"><path d="M 228 257 L 273 257 L 273 301.714844 L 228 301.714844 Z M 228 257 " clip-rule="nonzero"/></clipPath><clipPath id="c18754fc04"><path d="M 111 257 L 157 257 L 157 301.714844 L 111 301.714844 Z M 111 257 " clip-rule="nonzero"/></clipPath><clipPath id="e1e0683246"><path d="M 110 156.964844 L 118 156.964844 L 118 162 L 110 162 Z M 110 156.964844 " clip-rule="nonzero"/></clipPath><clipPath id="649203eb91"><path d="M 122 156.964844 L 163 156.964844 L 163 162 L 122 162 Z M 122 156.964844 " clip-rule="nonzero"/></clipPath><clipPath id="7f6225c450"><path d="M 75.925781 183 L 82 183 L 82 188 L 75.925781 188 Z M 75.925781 183 " clip-rule="nonzero"/></clipPath></defs><g clip-path="url(#438aee6815)"><path fill="hsl(27, 34%, 59%)" d="M 294.191406 243.011719 L 294.191406 236.109375 L 267.667969 199.835938 L 261.683594 191.640625 C 260.089844 189.484375 257.632812 188.191406 254.964844 188.105469 L 221.640625 187.285156 L 221.640625 172.015625 C 221.640625 168.78125 219.054688 166.195312 215.828125 166.195312 L 93.847656 166.195312 C 90.617188 166.195312 88.035156 168.78125 87.992188 172.015625 L 87.992188 183.578125 L 85.320312 183.578125 L 85.320312 187.890625 L 88.035156 187.890625 L 88.121094 273.203125 C 88.121094 276.4375 90.746094 279.070312 93.976562 279.070312 L 109.691406 279.070312 L 109.820312 277.042969 C 110.636719 264.449219 120.757812 255.304688 133.890625 255.304688 C 147.023438 255.304688 157.398438 264.664062 158.171875 277.042969 L 158.300781 279.070312 L 226.117188 279.070312 L 226.289062 277.128906 C 227.667969 263.800781 239.59375 254.097656 252.898438 255.476562 C 264.308594 256.640625 273.308594 265.699219 274.511719 277.128906 L 274.683594 279.070312 L 287.816406 279.070312 C 291.347656 279.027344 294.148438 276.222656 294.191406 272.6875 L 294.191406 260.265625 C 296.816406 259.402344 298.625 256.898438 298.625 254.140625 L 298.625 249.09375 C 298.625 246.332031 296.816406 243.875 294.191406 243.011719 Z M 162.261719 274.757812 C 160.371094 261.085938 148.527344 250.992188 133.890625 250.992188 C 126.742188 250.90625 119.808594 253.492188 114.425781 258.238281 C 109.648438 262.507812 106.546875 268.375 105.730469 274.757812 L 93.976562 274.757812 C 93.113281 274.757812 92.425781 274.066406 92.425781 273.203125 L 92.339844 187.890625 L 138.453125 187.890625 L 138.453125 183.578125 L 92.296875 183.578125 L 92.296875 172.015625 C 92.339844 171.199219 93.027344 170.507812 93.847656 170.507812 L 215.785156 170.507812 C 216.601562 170.507812 217.289062 171.199219 217.289062 172.015625 L 217.417969 274.757812 Z M 288.03125 234.988281 L 245.664062 234.988281 C 244.804688 234.988281 244.070312 234.257812 244.070312 233.394531 L 244.070312 205.746094 C 244.027344 204.882812 244.71875 204.191406 245.578125 204.148438 C 245.621094 204.148438 245.621094 204.148438 245.664062 204.148438 L 265.472656 204.148438 L 273.351562 214.890625 Z M 289.882812 272.644531 C 289.839844 273.765625 288.9375 274.671875 287.816406 274.714844 L 278.515625 274.714844 C 275.804688 259.144531 260.992188 248.75 245.449219 251.507812 C 233.609375 253.578125 224.351562 262.851562 222.285156 274.714844 L 221.726562 274.714844 L 221.726562 191.640625 L 254.835938 192.417969 C 256.171875 192.460938 257.417969 193.109375 258.195312 194.1875 L 262.328125 199.835938 L 245.664062 199.835938 C 242.390625 199.835938 239.765625 202.46875 239.765625 205.746094 L 239.765625 233.394531 C 239.765625 236.671875 242.390625 239.300781 245.664062 239.300781 L 289.882812 239.300781 L 289.882812 242.710938 C 286.4375 242.839844 283.726562 245.644531 283.726562 249.09375 L 283.726562 254.140625 C 283.726562 257.589844 286.4375 260.394531 289.882812 260.566406 Z M 294.320312 254.140625 C 294.320312 254.398438 294.277344 254.65625 294.191406 254.875 C 293.886719 255.691406 293.070312 256.253906 292.210938 256.253906 L 289.882812 256.253906 C 288.851562 256.125 288.03125 255.261719 288.03125 254.183594 L 288.03125 249.09375 C 288.03125 248.015625 288.851562 247.152344 289.882812 247.023438 L 292.210938 247.023438 C 293.113281 247.023438 293.886719 247.582031 294.191406 248.402344 C 294.277344 248.617188 294.320312 248.878906 294.320312 249.09375 Z M 294.320312 254.140625 " fill-opacity="1" fill-rule="nonzero"/></g><g clip-path="url(#0044ebced6)"><path fill="hsl(27, 34%, 59%)" d="M 250.402344 257.589844 C 238.085938 257.589844 228.054688 267.46875 228.054688 279.628906 C 228.054688 291.792969 238.085938 301.714844 250.402344 301.714844 C 262.714844 301.714844 272.746094 291.792969 272.746094 279.628906 C 272.746094 267.46875 262.714844 257.589844 250.402344 257.589844 Z M 250.402344 297.402344 C 240.453125 297.402344 232.359375 289.421875 232.359375 279.628906 C 232.359375 269.839844 240.453125 261.902344 250.402344 261.902344 C 260.347656 261.902344 268.441406 269.882812 268.441406 279.628906 C 268.441406 289.378906 260.347656 297.402344 250.402344 297.402344 Z M 250.402344 297.402344 " fill-opacity="1" fill-rule="nonzero"/></g><path fill="hsl(27, 34%, 59%)" d="M 250.402344 268.632812 C 244.328125 268.71875 239.464844 273.679688 239.550781 279.761719 C 239.636719 285.839844 244.589844 290.714844 250.660156 290.628906 C 256.6875 290.542969 261.507812 285.667969 261.507812 279.628906 C 261.464844 273.507812 256.515625 268.589844 250.402344 268.632812 Z M 250.402344 286.316406 C 246.699219 286.230469 243.769531 283.210938 243.855469 279.5 C 243.941406 275.792969 246.957031 272.859375 250.660156 272.945312 C 254.277344 273.03125 257.203125 276.007812 257.203125 279.628906 C 257.160156 283.339844 254.148438 286.359375 250.445312 286.316406 C 250.445312 286.316406 250.402344 286.316406 250.402344 286.316406 Z M 250.402344 286.316406 " fill-opacity="1" fill-rule="nonzero"/><g clip-path="url(#c18754fc04)"><path fill="hsl(27, 34%, 59%)" d="M 133.890625 257.589844 C 121.574219 257.589844 111.542969 267.46875 111.542969 279.628906 C 111.542969 291.792969 121.574219 301.714844 133.890625 301.714844 C 146.203125 301.714844 156.234375 291.792969 156.234375 279.628906 C 156.234375 267.46875 146.203125 257.589844 133.890625 257.589844 Z M 133.890625 297.402344 C 123.941406 297.402344 115.847656 289.421875 115.847656 279.628906 C 115.847656 269.839844 123.941406 261.902344 133.890625 261.902344 C 143.835938 261.902344 151.929688 269.882812 151.929688 279.628906 C 151.929688 289.378906 143.835938 297.402344 133.890625 297.402344 Z M 133.890625 297.402344 " fill-opacity="1" fill-rule="nonzero"/></g><path fill="hsl(27, 34%, 59%)" d="M 133.890625 268.632812 C 127.816406 268.71875 122.996094 273.722656 123.082031 279.804688 C 123.167969 285.882812 128.164062 290.714844 134.234375 290.628906 C 140.21875 290.542969 145.039062 285.625 145.039062 279.628906 C 144.996094 273.507812 140.003906 268.589844 133.890625 268.632812 Z M 133.890625 286.316406 C 130.1875 286.230469 127.300781 283.167969 127.386719 279.457031 C 127.472656 275.75 130.53125 272.859375 134.234375 272.945312 C 137.851562 273.03125 140.734375 276.007812 140.734375 279.628906 C 140.691406 283.339844 137.679688 286.359375 133.976562 286.316406 C 133.933594 286.316406 133.933594 286.316406 133.890625 286.316406 Z M 133.890625 286.316406 " fill-opacity="1" fill-rule="nonzero"/><path fill="hsl(27, 34%, 59%)" d="M 165.277344 288.171875 L 172.425781 288.171875 L 172.425781 292.484375 L 165.277344 292.484375 Z M 165.277344 288.171875 " fill-opacity="1" fill-rule="nonzero"/><path fill="hsl(27, 34%, 59%)" d="M 177.722656 288.171875 L 217.589844 288.171875 L 217.589844 292.484375 L 177.722656 292.484375 Z M 177.722656 288.171875 " fill-opacity="1" fill-rule="nonzero"/><g clip-path="url(#e1e0683246)"><path fill="hsl(27, 34%, 59%)" d="M 110.25 156.964844 L 117.398438 156.964844 L 117.398438 161.277344 L 110.25 161.277344 Z M 110.25 156.964844 " fill-opacity="1" fill-rule="nonzero"/></g><g clip-path="url(#649203eb91)"><path fill="hsl(27, 34%, 59%)" d="M 122.652344 156.964844 L 162.523438 156.964844 L 162.523438 161.277344 L 122.652344 161.277344 Z M 122.652344 156.964844 " fill-opacity="1" fill-rule="nonzero"/></g><g clip-path="url(#7f6225c450)"><path fill="hsl(27, 34%, 59%)" d="M 75.980469 187.882812 L 76.046875 183.570312 L 81.515625 183.65625 L 81.449219 187.96875 Z M 75.980469 187.882812 " fill-opacity="1" fill-rule="nonzero"/></g><path fill="hsl(27, 34%, 59%)" d="M 97.464844 241.414062 L 120.757812 241.414062 L 120.757812 245.730469 L 97.464844 245.730469 Z M 97.464844 241.414062 " fill-opacity="1" fill-rule="nonzero"/><path fill="hsl(27, 34%, 59%)" d="M 128.164062 241.414062 L 199.9375 241.414062 L 199.9375 245.730469 L 128.164062 245.730469 Z M 128.164062 241.414062 " fill-opacity="1" fill-rule="nonzero"/><path fill="hsl(27, 34%, 59%)" d="M 128.894531 216.011719 L 128.894531 215.40625 C 128.851562 214.632812 128.207031 213.984375 127.429688 213.984375 L 119.894531 213.984375 L 119.894531 206.953125 L 128.164062 206.953125 C 128.9375 206.953125 129.582031 206.308594 129.625 205.53125 L 129.625 204.925781 C 129.625 204.105469 128.980469 203.460938 128.164062 203.460938 L 115.890625 203.460938 L 115.890625 226.792969 C 115.890625 227.570312 116.539062 228.21875 117.3125 228.21875 L 118.433594 228.21875 C 119.207031 228.21875 119.851562 227.570312 119.894531 226.792969 L 119.894531 217.433594 L 127.429688 217.433594 C 128.207031 217.433594 128.851562 216.789062 128.894531 216.011719 Z M 128.894531 216.011719 " fill-opacity="1" fill-rule="nonzero"/><path fill="hsl(27, 34%, 59%)" d="M 134.535156 228.21875 L 135.65625 228.21875 C 136.429688 228.21875 137.074219 227.570312 137.074219 226.792969 L 137.074219 217.910156 L 139.488281 217.910156 C 142.070312 217.996094 143.144531 219.074219 143.835938 222.179688 C 144.523438 225.285156 145.085938 227.355469 145.472656 228.003906 L 145.601562 228.21875 L 149.820312 228.21875 L 149.476562 227.527344 C 148.960938 226.664062 148.398438 224.207031 147.667969 221.101562 C 147.152344 218.816406 146.160156 217.21875 144.738281 216.398438 C 147.195312 215.320312 148.742188 212.90625 148.65625 210.230469 C 148.699219 208.378906 147.96875 206.609375 146.632812 205.359375 C 145.039062 203.933594 142.84375 203.289062 139.445312 203.289062 C 137.421875 203.246094 135.4375 203.417969 133.457031 203.804688 L 133.070312 203.804688 L 133.070312 226.75 C 133.070312 227.570312 133.71875 228.21875 134.535156 228.21875 Z M 137.074219 206.78125 C 137.9375 206.609375 138.796875 206.523438 139.660156 206.566406 C 141.941406 206.609375 144.652344 207.296875 144.652344 210.578125 C 144.652344 213.035156 142.757812 214.632812 139.746094 214.632812 L 137.074219 214.632812 Z M 137.074219 206.78125 " fill-opacity="1" fill-rule="nonzero"/><path fill="hsl(27, 34%, 59%)" d="M 166.398438 226.792969 L 166.398438 226.191406 C 166.398438 225.371094 165.75 224.722656 164.933594 224.722656 L 156.0625 224.722656 L 156.0625 217.046875 L 163.898438 217.046875 C 164.675781 217.046875 165.320312 216.398438 165.320312 215.625 L 165.320312 215.019531 C 165.320312 214.242188 164.675781 213.597656 163.898438 213.597656 L 156.0625 213.597656 L 156.0625 206.953125 L 164.417969 206.953125 C 165.191406 206.953125 165.835938 206.308594 165.878906 205.53125 L 165.878906 204.925781 C 165.878906 204.105469 165.234375 203.460938 164.417969 203.460938 L 152.058594 203.460938 L 152.058594 228.21875 L 164.933594 228.21875 C 165.707031 228.21875 166.355469 227.570312 166.398438 226.792969 Z M 166.398438 226.792969 " fill-opacity="1" fill-rule="nonzero"/><path fill="hsl(27, 34%, 59%)" d="M 183.75 226.792969 L 183.75 226.191406 C 183.75 225.414062 183.101562 224.765625 182.328125 224.722656 L 173.457031 224.722656 L 173.457031 217.046875 L 181.25 217.046875 C 182.027344 217.046875 182.671875 216.398438 182.714844 215.625 L 182.714844 215.019531 C 182.671875 214.242188 182.027344 213.597656 181.25 213.597656 L 173.457031 213.597656 L 173.457031 206.953125 L 181.769531 206.953125 C 182.542969 206.953125 183.1875 206.308594 183.230469 205.53125 L 183.230469 204.925781 C 183.230469 204.105469 182.585938 203.460938 181.769531 203.460938 L 169.453125 203.460938 L 169.453125 228.21875 L 182.328125 228.21875 C 183.101562 228.21875 183.75 227.570312 183.75 226.792969 Z M 183.75 226.792969 " fill-opacity="1" fill-rule="nonzero"/></svg>