<svg xmlns="http://www.w3.org/2000/svg" xmlns:xlink="http://www.w3.org/1999/xlink" width="480" zoomAndPan="magnify" viewBox="0 0 360 503.999982" height="672" preserveAspectRatio="xMidYMid meet" version="1.0"><defs><clipPath id="05b4ee3cbc"><path d="M 110.304688 265 L 120 265 L 120 271 L 110.304688 271 Z M 110.304688 265 " clip-rule="nonzero"/></clipPath><clipPath id="53a1b69869"><path d="M 110.304688 239 L 120 239 L 120 245 L 110.304688 245 Z M 110.304688 239 " clip-rule="nonzero"/></clipPath><clipPath id="8684bb613d"><path d="M 240 266 L 249.804688 266 L 249.804688 271 L 240 271 Z M 240 266 " clip-rule="nonzero"/></clipPath><clipPath id="2c4e0f72b0"><path d="M 122 182.480469 L 238 182.480469 L 238 321.230469 L 122 321.230469 Z M 122 182.480469 " clip-rule="nonzero"/></clipPath></defs><g clip-path="url(#05b4ee3cbc)"><path fill="hsl(27, 34%, 59%)" d="M 117.734375 265.152344 L 111.089844 268.492188 C 110.597656 268.738281 110.398438 269.335938 110.648438 269.828125 C 110.824219 270.175781 111.175781 270.378906 111.542969 270.378906 C 111.695312 270.378906 111.847656 270.34375 111.992188 270.273438 L 118.632812 266.933594 C 119.128906 266.683594 119.324219 266.085938 119.078125 265.59375 C 118.828125 265.101562 118.226562 264.902344 117.734375 265.152344 Z M 117.734375 265.152344 " fill-opacity="1" fill-rule="nonzero"/></g><g clip-path="url(#53a1b69869)"><path fill="hsl(27, 34%, 59%)" d="M 118.871094 242.558594 L 112.167969 239.34375 C 111.671875 239.101562 111.074219 239.3125 110.832031 239.808594 C 110.59375 240.304688 110.800781 240.902344 111.300781 241.140625 L 118.003906 244.355469 C 118.144531 244.425781 118.292969 244.457031 118.4375 244.457031 C 118.8125 244.457031 119.167969 244.25 119.34375 243.890625 C 119.578125 243.394531 119.367188 242.796875 118.871094 242.558594 Z M 118.871094 242.558594 " fill-opacity="1" fill-rule="nonzero"/></g><path fill="hsl(27, 34%, 59%)" d="M 189.195312 266.949219 C 188.054688 265.945312 187.8125 264.28125 188.617188 262.996094 L 190.023438 260.753906 C 191.34375 258.636719 190.949219 255.902344 189.078125 254.25 L 184.4375 250.152344 C 184.023438 249.785156 183.390625 249.824219 183.023438 250.238281 C 182.660156 250.648438 182.695312 251.28125 183.109375 251.644531 L 187.75 255.742188 C 188.886719 256.746094 189.128906 258.410156 188.324219 259.695312 L 186.921875 261.9375 C 185.597656 264.054688 185.996094 266.789062 187.867188 268.441406 L 192.011719 272.105469 C 192.203125 272.273438 192.4375 272.355469 192.671875 272.355469 C 192.949219 272.355469 193.226562 272.242188 193.421875 272.019531 C 193.789062 271.605469 193.75 270.976562 193.335938 270.609375 Z M 189.195312 266.949219 " fill-opacity="1" fill-rule="nonzero"/><path fill="hsl(27, 34%, 59%)" d="M 211.136719 244.890625 C 210.164062 244.328125 209.070312 244.0625 207.917969 244.0625 C 203.945312 244.0625 199.269531 247.238281 196.292969 252.382812 C 194.398438 255.65625 193.480469 259.214844 193.707031 262.402344 C 193.925781 265.449219 195.167969 267.773438 197.207031 268.945312 C 201.554688 271.449219 208.210938 268.085938 212.050781 261.453125 C 213.945312 258.179688 214.867188 254.621094 214.636719 251.433594 C 214.421875 248.386719 213.175781 246.0625 211.136719 244.890625 Z M 208.644531 248 L 204.894531 251.3125 C 203.757812 252.320312 203.515625 253.984375 204.320312 255.269531 L 205.722656 257.511719 C 207.046875 259.628906 206.648438 262.363281 204.777344 264.015625 L 200.972656 267.378906 C 200.78125 267.546875 200.546875 267.628906 200.308594 267.628906 C 200.03125 267.628906 199.757812 267.515625 199.558594 267.292969 C 199.195312 266.878906 199.230469 266.25 199.644531 265.882812 L 203.449219 262.523438 C 204.589844 261.515625 204.832031 259.851562 204.027344 258.566406 L 202.621094 256.324219 C 201.300781 254.207031 201.695312 251.472656 203.566406 249.820312 L 207.320312 246.507812 C 207.734375 246.144531 208.367188 246.179688 208.730469 246.59375 C 209.097656 247.003906 209.058594 247.636719 208.644531 248 Z M 208.644531 248 " fill-opacity="1" fill-rule="nonzero"/><path fill="hsl(27, 34%, 59%)" d="M 241.546875 245.335938 L 248.046875 241.726562 C 248.53125 241.457031 248.703125 240.851562 248.433594 240.371094 C 248.164062 239.890625 247.554688 239.714844 247.074219 239.984375 L 240.574219 243.59375 C 240.089844 243.859375 239.917969 244.46875 240.1875 244.949219 C 240.371094 245.277344 240.710938 245.460938 241.0625 245.460938 C 241.222656 245.460938 241.390625 245.421875 241.546875 245.335938 Z M 241.546875 245.335938 " fill-opacity="1" fill-rule="nonzero"/><g clip-path="url(#8684bb613d)"><path fill="hsl(27, 34%, 59%)" d="M 248.96875 269.066406 L 242.136719 266.125 C 241.628906 265.90625 241.042969 266.140625 240.820312 266.648438 C 240.601562 267.15625 240.835938 267.738281 241.34375 267.957031 L 248.175781 270.898438 C 248.304688 270.957031 248.4375 270.980469 248.574219 270.980469 C 248.957031 270.980469 249.328125 270.757812 249.488281 270.378906 C 249.707031 269.871094 249.476562 269.28125 248.96875 269.066406 Z M 248.96875 269.066406 " fill-opacity="1" fill-rule="nonzero"/></g><path fill="hsl(27, 34%, 59%)" d="M 225.816406 293.210938 L 191.0625 293.210938 C 190.511719 293.210938 190.0625 293.660156 190.0625 294.210938 C 190.0625 294.757812 190.511719 295.207031 191.0625 295.207031 L 225.816406 295.207031 C 226.367188 295.207031 226.816406 294.757812 226.816406 294.210938 C 226.816406 293.660156 226.371094 293.210938 225.816406 293.210938 Z M 225.816406 293.210938 " fill-opacity="1" fill-rule="nonzero"/><path fill="hsl(27, 34%, 59%)" d="M 215.671875 304.285156 L 180.914062 304.285156 C 180.363281 304.285156 179.914062 304.734375 179.914062 305.285156 C 179.914062 305.832031 180.363281 306.28125 180.914062 306.28125 L 215.667969 306.28125 C 216.21875 306.28125 216.667969 305.832031 216.667969 305.285156 C 216.667969 304.734375 216.222656 304.285156 215.671875 304.285156 Z M 215.671875 304.285156 " fill-opacity="1" fill-rule="nonzero"/><path fill="hsl(27, 34%, 59%)" d="M 182.265625 294.210938 C 182.265625 293.660156 181.816406 293.210938 181.265625 293.210938 L 170.300781 293.210938 C 169.75 293.210938 169.300781 293.660156 169.300781 294.210938 C 169.300781 294.757812 169.75 295.207031 170.300781 295.207031 L 181.265625 295.207031 C 181.816406 295.207031 182.265625 294.761719 182.265625 294.210938 Z M 182.265625 294.210938 " fill-opacity="1" fill-rule="nonzero"/><g clip-path="url(#2c4e0f72b0)"><path fill="hsl(27, 34%, 59%)" d="M 233.855469 241.449219 C 233.6875 238.488281 233.125 235.5625 232.191406 232.742188 L 220.371094 197.167969 C 222.199219 196.863281 223.601562 195.285156 223.601562 193.378906 L 223.601562 189.246094 C 223.601562 187.128906 221.867188 185.402344 219.742188 185.402344 L 195.050781 185.402344 C 194.5 185.402344 194.050781 185.847656 194.050781 186.398438 C 194.050781 186.949219 194.5 187.394531 195.050781 187.394531 L 219.742188 187.394531 C 220.765625 187.394531 221.601562 188.226562 221.601562 189.246094 L 221.601562 193.378906 C 221.601562 194.398438 220.765625 195.230469 219.742188 195.230469 L 190.996094 195.230469 L 190.996094 185.472656 C 190.996094 183.820312 189.652344 182.480469 187.996094 182.480469 L 173.359375 182.480469 C 171.730469 182.480469 170.402344 183.78125 170.359375 185.398438 L 141.613281 185.398438 C 139.488281 185.398438 137.757812 187.125 137.757812 189.242188 L 137.757812 193.375 C 137.757812 195.296875 139.175781 196.886719 141.023438 197.171875 L 141.023438 304.578125 C 139.941406 304.722656 138.890625 305.113281 137.964844 305.753906 L 124.140625 315.355469 C 124.039062 314.90625 123.992188 314.441406 124.023438 313.96875 L 128.136719 241.5625 C 128.292969 238.777344 128.824219 236.023438 129.703125 233.375 L 138.621094 206.527344 C 138.792969 206.007812 138.507812 205.441406 137.984375 205.269531 C 137.464844 205.097656 136.898438 205.382812 136.722656 205.902344 L 127.804688 232.746094 C 126.871094 235.5625 126.3125 238.488281 126.140625 241.453125 L 122.023438 313.855469 C 121.917969 315.792969 122.589844 317.632812 123.925781 319.042969 C 125.261719 320.453125 127.066406 321.226562 129.015625 321.226562 L 230.980469 321.226562 C 232.925781 321.226562 234.730469 320.449219 236.070312 319.042969 C 237.40625 317.632812 238.082031 315.789062 237.96875 313.855469 Z M 172.363281 185.472656 C 172.363281 184.921875 172.808594 184.472656 173.363281 184.472656 L 188 184.472656 C 188.550781 184.472656 189 184.921875 189 185.472656 L 189 196.222656 C 189 196.328125 189.015625 196.4375 189.050781 196.539062 L 192.839844 207.917969 C 192.851562 207.949219 192.871094 208.011719 192.792969 208.074219 C 192.714844 208.136719 192.660156 208.101562 192.632812 208.085938 L 185 203.765625 C 183.863281 203.125 182.457031 203.28125 181.496094 204.15625 L 176.714844 208.503906 C 176.703125 208.515625 176.660156 208.554688 176.585938 208.535156 C 176.511719 208.515625 176.488281 208.460938 176.484375 208.441406 L 172.363281 196.0625 Z M 170.636719 197.222656 L 174.582031 209.070312 C 174.808594 209.761719 175.371094 210.28125 176.074219 210.464844 C 176.253906 210.511719 176.4375 210.535156 176.617188 210.535156 C 177.144531 210.535156 177.660156 210.339844 178.058594 209.976562 L 182.839844 205.628906 C 183.160156 205.339844 183.628906 205.285156 184.007812 205.496094 L 191.640625 209.824219 C 192.417969 210.265625 193.363281 210.183594 194.054688 209.617188 C 194.746094 209.050781 195.011719 208.140625 194.730469 207.292969 L 191.378906 197.222656 L 218.28125 197.222656 L 230.289062 233.371094 C 230.605469 234.324219 230.875 235.292969 231.101562 236.269531 L 156.167969 236.269531 C 155.910156 235.078125 155.59375 233.898438 155.207031 232.742188 L 143.40625 197.222656 Z M 213.78125 262.449219 C 210.4375 268.230469 205.066406 271.746094 200.355469 271.746094 C 199.75 271.746094 199.152344 271.683594 198.578125 271.566406 C 197.921875 272.683594 197.046875 273.597656 195.9375 274.238281 C 191.109375 277.019531 183.847656 273.5 179.726562 266.378906 C 175.605469 259.261719 176.179688 251.234375 181.007812 248.453125 C 184.78125 246.28125 190.035156 247.957031 194.121094 252.1875 C 194.261719 251.917969 194.40625 251.648438 194.5625 251.382812 C 198.953125 243.796875 206.839844 240.109375 212.140625 243.160156 C 214.773438 244.675781 216.367188 247.5625 216.632812 251.289062 C 216.890625 254.871094 215.878906 258.835938 213.78125 262.449219 Z M 139.757812 193.375 L 139.757812 189.242188 C 139.757812 188.222656 140.589844 187.390625 141.613281 187.390625 L 170.359375 187.390625 L 170.359375 195.226562 L 141.613281 195.226562 C 140.589844 195.226562 139.757812 194.398438 139.757812 193.375 Z M 153.996094 319.234375 L 129.015625 319.234375 C 127.625 319.234375 126.332031 318.679688 125.378906 317.675781 C 125.238281 317.523438 125.109375 317.363281 124.984375 317.199219 L 139.105469 307.394531 C 140.804688 306.21875 143.085938 306.210938 144.792969 307.375 L 153.339844 313.222656 C 153.796875 313.53125 154.417969 313.417969 154.730469 312.960938 C 155.042969 312.507812 154.929688 311.886719 154.472656 311.574219 L 145.921875 305.726562 C 145.039062 305.125 144.042969 304.746094 143.019531 304.589844 L 143.019531 202.40625 L 153.304688 233.375 C 154.1875 236.023438 154.710938 238.777344 154.871094 241.5625 L 158.988281 313.96875 C 159.066406 315.351562 158.582031 316.664062 157.628906 317.675781 C 156.675781 318.679688 155.382812 319.234375 153.996094 319.234375 Z M 234.613281 317.675781 C 233.660156 318.679688 232.371094 319.234375 230.980469 319.234375 L 158.890625 319.234375 C 158.957031 319.171875 159.019531 319.109375 159.082031 319.046875 C 160.421875 317.632812 161.09375 315.792969 160.984375 313.855469 L 159.070312 280.1875 L 234.050781 280.1875 L 235.972656 313.972656 C 236.050781 315.351562 235.570312 316.664062 234.613281 317.675781 Z M 234.613281 317.675781 " fill-opacity="1" fill-rule="nonzero"/></g></svg>