<svg xmlns="http://www.w3.org/2000/svg" xmlns:xlink="http://www.w3.org/1999/xlink" width="480" zoomAndPan="magnify" viewBox="0 0 360 503.999982" height="672" preserveAspectRatio="xMidYMid meet" version="1.0"><defs><clipPath id="7188a2907f"><path d="M 122 174.042969 L 238 174.042969 L 238 316.542969 L 122 316.542969 Z M 122 174.042969 " clip-rule="nonzero"/></clipPath></defs><path fill="hsl(27, 34%, 59%)" d="M 191.058594 183.976562 C 191.558594 183.613281 191.597656 182.5 190.863281 181.496094 C 190.5 181 190.011719 180.628906 189.519531 180.476562 C 189.40625 180.441406 189.242188 180.402344 189.066406 180.402344 C 188.894531 180.402344 188.710938 180.441406 188.554688 180.550781 C 188.238281 180.78125 188.1875 181.210938 188.1875 181.445312 C 188.183594 181.957031 188.386719 182.539062 188.75 183.03125 C 189.488281 184.042969 190.558594 184.339844 191.058594 183.976562 Z M 191.058594 183.976562 " fill-opacity="1" fill-rule="nonzero"/><path fill="hsl(27, 34%, 59%)" d="M 171.257812 192.019531 C 171.875 192.113281 172.683594 191.355469 172.871094 190.121094 C 172.960938 189.511719 172.875 188.90625 172.636719 188.453125 C 172.527344 188.242188 172.285156 187.886719 171.898438 187.828125 C 171.859375 187.820312 171.824219 187.820312 171.789062 187.820312 C 171.449219 187.820312 171.15625 188.054688 171.003906 188.207031 C 170.640625 188.566406 170.378906 189.121094 170.285156 189.726562 C 170.195312 190.335938 170.277344 190.941406 170.519531 191.394531 C 170.628906 191.605469 170.871094 191.960938 171.257812 192.019531 Z M 171.257812 192.019531 " fill-opacity="1" fill-rule="nonzero"/><path fill="hsl(27, 34%, 59%)" d="M 167.769531 267.574219 L 165.867188 270.617188 C 164.152344 273.359375 164.667969 276.902344 167.089844 279.042969 L 172.71875 284.019531 C 172.914062 284.195312 173.15625 284.277344 173.402344 284.277344 C 173.6875 284.277344 173.972656 284.160156 174.175781 283.933594 C 174.554688 283.503906 174.515625 282.851562 174.085938 282.476562 L 168.460938 277.5 C 166.796875 276.027344 166.441406 273.59375 167.621094 271.710938 L 169.523438 268.664062 C 171.234375 265.925781 170.722656 262.382812 168.296875 260.238281 L 162 254.671875 C 161.570312 254.296875 160.917969 254.332031 160.539062 254.761719 C 160.164062 255.1875 160.199219 255.839844 160.628906 256.214844 L 166.929688 261.785156 C 168.59375 263.253906 168.949219 265.691406 167.769531 267.574219 Z M 167.769531 267.574219 " fill-opacity="1" fill-rule="nonzero"/><path fill="hsl(27, 34%, 59%)" d="M 179.394531 280.253906 C 182.261719 281.902344 185.953125 281.785156 189.792969 279.925781 C 193.765625 278 197.386719 274.453125 199.992188 269.953125 C 202.601562 265.449219 203.859375 260.546875 203.546875 256.148438 C 203.246094 251.898438 201.5 248.652344 198.632812 246.996094 C 197.289062 246.226562 195.765625 245.839844 194.132812 245.839844 C 192.273438 245.839844 190.277344 246.339844 188.234375 247.328125 C 184.261719 249.253906 180.640625 252.796875 178.035156 257.300781 C 175.425781 261.804688 174.167969 266.707031 174.480469 271.105469 C 174.785156 275.351562 176.53125 278.597656 179.394531 280.253906 Z M 183.082031 276.050781 L 188.25 271.480469 C 189.914062 270.007812 190.269531 267.574219 189.09375 265.691406 L 187.1875 262.648438 C 185.476562 259.90625 185.988281 256.363281 188.414062 254.222656 L 193.507812 249.71875 C 193.9375 249.339844 194.589844 249.378906 194.964844 249.804688 C 195.34375 250.234375 195.304688 250.882812 194.878906 251.261719 L 189.78125 255.765625 C 188.117188 257.238281 187.765625 259.671875 188.941406 261.554688 L 190.847656 264.601562 C 192.558594 267.339844 192.042969 270.882812 189.621094 273.027344 L 184.453125 277.59375 C 184.253906 277.769531 184.011719 277.855469 183.765625 277.855469 C 183.480469 277.855469 183.195312 277.734375 182.992188 277.507812 C 182.617188 277.082031 182.652344 276.429688 183.082031 276.050781 Z M 183.082031 276.050781 " fill-opacity="1" fill-rule="nonzero"/><path fill="hsl(27, 34%, 59%)" d="M 180.1875 298.667969 C 198.929688 298.667969 214.117188 283.507812 214.117188 264.804688 C 214.117188 246.105469 198.925781 230.949219 180.1875 230.949219 C 161.453125 230.949219 146.257812 246.105469 146.257812 264.804688 C 146.257812 283.507812 161.449219 298.667969 180.1875 298.667969 Z M 157.558594 252.121094 C 162.757812 249.125 170.023438 251.515625 175.597656 257.449219 C 175.804688 257.050781 176.019531 256.65625 176.246094 256.265625 C 179.054688 251.410156 182.992188 247.574219 187.332031 245.46875 C 191.808594 243.296875 196.1875 243.207031 199.667969 245.210938 C 203.144531 247.214844 205.253906 251.046875 205.609375 255.996094 C 205.953125 260.804688 204.59375 266.125 201.78125 270.976562 C 198.972656 275.832031 195.035156 279.667969 190.695312 281.773438 C 188.363281 282.90625 186.058594 283.472656 183.890625 283.472656 C 183.101562 283.472656 182.328125 283.390625 181.578125 283.242188 C 180.671875 284.890625 179.425781 286.238281 177.828125 287.15625 C 171.269531 290.9375 161.414062 286.15625 155.816406 276.476562 C 150.21875 266.808594 151 255.902344 157.558594 252.121094 Z M 157.558594 252.121094 " fill-opacity="1" fill-rule="nonzero"/><path fill="hsl(27, 34%, 59%)" d="M 115.574219 265.476562 L 108.710938 268.929688 C 108.199219 269.183594 107.996094 269.804688 108.253906 270.3125 C 108.4375 270.671875 108.800781 270.878906 109.179688 270.878906 C 109.335938 270.878906 109.492188 270.84375 109.640625 270.765625 L 116.503906 267.3125 C 117.015625 267.058594 117.21875 266.4375 116.960938 265.929688 C 116.707031 265.421875 116.085938 265.21875 115.574219 265.476562 Z M 115.574219 265.476562 " fill-opacity="1" fill-rule="nonzero"/><path fill="hsl(27, 34%, 59%)" d="M 116.75 242.113281 L 109.824219 238.789062 C 109.3125 238.539062 108.695312 238.753906 108.445312 239.269531 C 108.199219 239.785156 108.414062 240.398438 108.929688 240.648438 L 115.855469 243.972656 C 116 244.042969 116.152344 244.074219 116.304688 244.074219 C 116.6875 244.074219 117.058594 243.859375 117.238281 243.492188 C 117.480469 242.976562 117.261719 242.359375 116.75 242.113281 Z M 116.75 242.113281 " fill-opacity="1" fill-rule="nonzero"/><path fill="hsl(27, 34%, 59%)" d="M 251.746094 240.574219 C 251.492188 240.066406 250.871094 239.859375 250.363281 240.113281 L 243.484375 243.535156 C 242.972656 243.789062 242.765625 244.410156 243.019531 244.917969 C 243.199219 245.28125 243.566406 245.488281 243.945312 245.488281 C 244.097656 245.488281 244.257812 245.453125 244.40625 245.378906 L 251.28125 241.957031 C 251.792969 241.703125 252.003906 241.085938 251.746094 240.574219 Z M 251.746094 240.574219 " fill-opacity="1" fill-rule="nonzero"/><path fill="hsl(27, 34%, 59%)" d="M 250.949219 270.242188 L 244.039062 266.886719 C 243.523438 266.640625 242.90625 266.851562 242.65625 267.363281 C 242.40625 267.875 242.621094 268.492188 243.136719 268.742188 L 250.046875 272.097656 C 250.191406 272.167969 250.34375 272.199219 250.496094 272.199219 C 250.882812 272.199219 251.246094 271.988281 251.425781 271.621094 C 251.675781 271.109375 251.460938 270.488281 250.949219 270.242188 Z M 250.949219 270.242188 " fill-opacity="1" fill-rule="nonzero"/><g clip-path="url(#7188a2907f)"><path fill="hsl(27, 34%, 59%)" d="M 233.925781 290.839844 L 235.160156 280.3125 C 237.300781 262.046875 237.007812 243.5625 234.292969 225.375 L 232.757812 215.09375 C 234.519531 214.691406 235.835938 213.121094 235.835938 211.25 L 235.835938 202.867188 C 235.835938 200.691406 234.058594 198.921875 231.882812 198.921875 L 228.78125 198.921875 C 226.136719 193.75 220.753906 190.207031 214.535156 190.207031 C 213.261719 190.207031 212.019531 190.363281 210.832031 190.644531 C 210.265625 181.386719 202.5625 174.050781 193.140625 174.050781 C 187.890625 174.050781 183.175781 176.328125 179.929688 179.949219 C 175.980469 176.289062 170.695312 174.050781 164.882812 174.050781 C 154.445312 174.050781 145.707031 181.257812 143.371094 190.957031 C 138.890625 192.242188 135.085938 195.117188 132.601562 198.921875 L 128.492188 198.921875 C 126.3125 198.921875 124.539062 200.691406 124.539062 202.867188 L 124.539062 211.25 C 124.539062 213.425781 126.3125 215.191406 128.492188 215.191406 L 217.3125 215.191406 C 217.878906 215.191406 218.34375 214.730469 218.34375 214.164062 C 218.34375 213.59375 217.878906 213.132812 217.3125 213.132812 L 128.492188 213.132812 C 127.449219 213.132812 126.605469 212.285156 126.605469 211.25 L 126.605469 202.867188 C 126.605469 201.828125 127.453125 200.984375 128.492188 200.984375 L 231.882812 200.984375 C 232.925781 200.984375 233.769531 201.832031 233.769531 202.867188 L 233.769531 211.25 C 233.769531 212.289062 232.921875 213.132812 231.882812 213.132812 L 224.765625 213.132812 C 224.199219 213.132812 223.734375 213.59375 223.734375 214.164062 C 223.734375 214.730469 224.199219 215.191406 224.765625 215.191406 L 230.683594 215.191406 L 232.246094 225.679688 C 234.933594 243.6875 235.222656 261.988281 233.105469 280.074219 L 231.871094 290.601562 C 230.984375 298.175781 232.207031 305.839844 235.410156 312.761719 C 235.582031 313.136719 235.535156 313.554688 235.277344 313.878906 C 235.019531 314.203125 234.621094 314.347656 234.21875 314.265625 C 225.84375 312.558594 217.273438 312.039062 208.753906 312.730469 L 195.742188 313.785156 C 185.300781 314.632812 174.707031 314.632812 164.261719 313.785156 L 151.25 312.730469 C 142.730469 312.042969 134.164062 312.558594 125.789062 314.265625 C 125.382812 314.347656 124.984375 314.203125 124.730469 313.878906 C 124.472656 313.554688 124.421875 313.136719 124.597656 312.761719 C 127.800781 305.839844 129.023438 298.175781 128.136719 290.601562 L 126.902344 280.074219 C 124.785156 261.988281 125.070312 243.6875 127.757812 225.679688 L 128.660156 219.613281 C 128.742188 219.050781 128.355469 218.523438 127.789062 218.441406 C 127.226562 218.355469 126.699219 218.742188 126.617188 219.308594 L 125.710938 225.375 C 123 243.5625 122.707031 262.046875 124.847656 280.3125 L 126.082031 290.839844 C 126.925781 298.035156 125.761719 305.316406 122.714844 311.894531 C 122.21875 312.976562 122.363281 314.226562 123.105469 315.160156 C 123.847656 316.09375 125.03125 316.523438 126.199219 316.285156 C 134.382812 314.613281 142.753906 314.109375 151.078125 314.785156 L 164.089844 315.839844 C 169.371094 316.265625 174.683594 316.480469 180 316.480469 C 185.3125 316.480469 190.628906 316.265625 195.910156 315.839844 L 208.921875 314.785156 C 217.246094 314.109375 225.617188 314.613281 233.800781 316.285156 C 234.964844 316.523438 236.152344 316.089844 236.894531 315.160156 C 237.636719 314.226562 237.78125 312.976562 237.285156 311.894531 C 234.242188 305.320312 233.082031 298.035156 233.925781 290.839844 Z M 198.140625 188.1875 C 198.472656 187.179688 199.09375 186.324219 199.882812 185.769531 C 200.75 185.160156 201.765625 184.980469 202.664062 185.28125 C 204.457031 185.875 205.285156 188.085938 204.542969 190.308594 C 204.363281 190.847656 203.777344 191.140625 203.238281 190.960938 C 202.699219 190.78125 202.402344 190.199219 202.582031 189.660156 C 202.980469 188.476562 202.597656 187.433594 202.011719 187.238281 C 201.636719 187.113281 201.261719 187.324219 201.070312 187.460938 C 200.648438 187.753906 200.296875 188.257812 200.101562 188.839844 C 199.707031 190.023438 200.089844 191.066406 200.675781 191.261719 C 201.214844 191.441406 201.511719 192.023438 201.332031 192.5625 C 201.1875 192.996094 200.785156 193.269531 200.351562 193.269531 C 200.242188 193.269531 200.132812 193.25 200.027344 193.214844 C 198.226562 192.621094 197.398438 190.414062 198.140625 188.1875 Z M 187.335938 178.886719 C 188.101562 178.332031 189.117188 178.191406 190.132812 178.507812 C 191.050781 178.792969 191.90625 179.421875 192.53125 180.28125 C 193.914062 182.175781 193.804688 184.527344 192.277344 185.640625 C 191.761719 186.015625 191.160156 186.195312 190.535156 186.195312 C 189.3125 186.195312 188 185.503906 187.082031 184.25 C 186.457031 183.390625 186.113281 182.390625 186.121094 181.429688 C 186.128906 180.371094 186.570312 179.445312 187.335938 178.886719 Z M 181.125 194.484375 C 181.527344 194.078125 182.179688 194.078125 182.585938 194.484375 C 183.023438 194.917969 184.125 194.789062 185.011719 193.90625 C 185.898438 193.023438 186.027344 191.921875 185.589844 191.484375 C 185.152344 191.046875 184.046875 191.175781 183.160156 192.058594 C 182.757812 192.460938 182.105469 192.460938 181.699219 192.058594 C 181.296875 191.65625 181.296875 191.003906 181.699219 190.601562 C 183.363281 188.941406 185.710938 188.691406 187.050781 190.027344 C 188.386719 191.359375 188.132812 193.707031 186.472656 195.363281 C 185.527344 196.308594 184.359375 196.796875 183.28125 196.796875 C 182.464844 196.796875 181.703125 196.515625 181.125 195.9375 C 180.722656 195.539062 180.722656 194.886719 181.125 194.484375 Z M 168.242188 189.421875 C 168.402344 188.375 168.863281 187.421875 169.546875 186.746094 C 170.300781 186 171.269531 185.652344 172.203125 185.796875 C 173.140625 185.9375 173.960938 186.554688 174.460938 187.492188 C 174.910156 188.339844 175.070312 189.386719 174.910156 190.433594 C 174.585938 192.574219 173.078125 194.097656 171.378906 194.097656 C 171.234375 194.097656 171.089844 194.085938 170.945312 194.066406 C 170.011719 193.921875 169.1875 193.304688 168.691406 192.367188 C 168.242188 191.515625 168.082031 190.46875 168.242188 189.421875 Z M 158.070312 182.667969 C 158.25 181.722656 158.78125 180.808594 159.558594 180.089844 C 160.34375 179.371094 161.300781 178.917969 162.253906 178.816406 C 163.3125 178.703125 164.285156 179.039062 164.925781 179.734375 C 166.207031 181.121094 165.859375 183.453125 164.128906 185.042969 C 163.710938 185.425781 163.054688 185.402344 162.667969 184.980469 C 162.28125 184.5625 162.308594 183.910156 162.726562 183.523438 C 163.648438 182.679688 163.824219 181.582031 163.402344 181.128906 C 163.136719 180.84375 162.707031 180.839844 162.472656 180.867188 C 161.960938 180.917969 161.40625 181.191406 160.957031 181.605469 C 160.503906 182.023438 160.191406 182.550781 160.09375 183.050781 C 160.050781 183.28125 160.015625 183.710938 160.28125 184 C 160.667969 184.417969 160.640625 185.074219 160.222656 185.460938 C 160.023438 185.640625 159.773438 185.734375 159.523438 185.734375 C 159.246094 185.734375 158.964844 185.621094 158.761719 185.402344 C 158.125 184.707031 157.871094 183.710938 158.070312 182.667969 Z M 149.667969 190.496094 C 150.109375 190.132812 150.761719 190.195312 151.125 190.636719 C 151.488281 191.074219 151.421875 191.726562 150.980469 192.089844 C 150.503906 192.480469 150.527344 193.585938 151.320312 194.554688 C 152.113281 195.515625 153.203125 195.753906 153.679688 195.359375 C 153.980469 195.113281 154.007812 194.683594 153.996094 194.449219 C 153.96875 193.933594 153.730469 193.371094 153.339844 192.894531 C 152.976562 192.457031 153.042969 191.804688 153.480469 191.441406 C 153.921875 191.082031 154.574219 191.144531 154.9375 191.585938 C 155.613281 192.402344 156.011719 193.382812 156.058594 194.339844 C 156.113281 195.398438 155.726562 196.351562 154.992188 196.953125 C 154.449219 197.398438 153.789062 197.613281 153.097656 197.613281 C 151.925781 197.613281 150.664062 197 149.726562 195.863281 C 148.234375 194.050781 148.210938 191.691406 149.667969 190.496094 Z M 206.507812 196.375 C 207.292969 194.65625 209.578125 194.074219 211.71875 195.046875 C 213.484375 195.851562 214.507812 197.425781 214.375 198.917969 L 212.273438 198.917969 C 212.464844 198.34375 211.953125 197.421875 210.859375 196.921875 C 209.722656 196.402344 208.644531 196.667969 208.386719 197.230469 C 208.183594 197.671875 208.460938 198.382812 209.148438 198.917969 L 206.554688 198.917969 C 206.179688 198.09375 206.132812 197.191406 206.507812 196.375 Z M 206.507812 196.375 " fill-opacity="1" fill-rule="nonzero"/></g></svg>